{"glyphs":{"0":{"ha":915,"x_min":0,"x_max":0,"o":"m 589 13 b 710 88 633 28 675 54 b 818 243 757 129 793 185 b 872 600 867 354 881 481 b 799 846 865 686 847 775 b 574 1000 747 921 663 983 b 319 978 490 1017 399 1010 b 146 847 253 950 190 904 b 43 553 83 764 50 657 b 83 244 38 450 47 342 b 174 96 104 190 133 138 b 324 10 214 56 268 26 b 589 13 408 -17 506 -17 z m 521 400 b 475 428 504 404 488 415 b 429 504 454 449 438 476 b 436 701 408 567 411 640 b 574 783 461 760 517 808 b 650 694 610 767 635 731 b 656 508 672 636 674 568 b 521 400 638 444 585 383 z "},"1":{"ha":569,"x_min":0,"x_max":0,"o":"m 379 -19 b 451 28 406 -10 432 6 b 489 110 471 50 482 79 b 500 276 499 164 499 221 b 501 582 500 379 499 481 b 514 851 504 672 514 763 b 496 949 514 885 511 919 b 457 990 488 965 474 981 b 374 1007 432 1004 403 1008 b 226 985 354 1007 247 988 b 125 961 193 979 157 976 b 53 888 93 946 68 919 b 26 790 38 857 29 824 b 39 717 25 765 26 738 b 96 668 51 693 72 676 b 175 656 121 658 150 661 b 183 650 178 654 183 654 b 143 210 176 593 146 268 b 169 50 140 156 143 97 b 379 -19 206 -14 310 -40 z "},"2":{"ha":871,"x_min":0,"x_max":0,"o":"m 657 -7 b 756 8 672 -6 742 4 b 794 36 771 14 785 24 b 825 108 811 57 819 83 b 785 299 836 167 835 268 b 729 314 768 308 749 313 b 553 304 671 319 611 310 b 750 549 635 369 707 453 b 790 757 778 613 794 686 b 767 858 788 792 782 826 b 689 947 750 894 724 929 b 374 1025 594 1001 481 1029 b 178 1007 308 1022 242 1021 b 82 965 144 1000 108 989 b 51 903 64 951 54 926 b 56 796 46 868 51 832 b 83 732 58 772 68 749 b 172 704 106 710 142 700 b 329 721 225 710 276 721 b 429 699 364 722 401 718 b 464 654 444 688 457 671 b 472 586 474 633 475 608 b 431 507 468 557 451 528 b 258 414 383 461 319 436 b 114 350 210 396 154 385 b 51 232 79 322 61 276 b 49 93 42 188 43 139 b 65 39 50 75 53 54 b 339 -1 108 -8 275 -1 b 657 -7 379 0 617 -8 z "},"3":{"ha":849,"x_min":0,"x_max":0,"o":"m 535 -24 b 739 97 613 -7 694 32 b 811 356 792 171 818 267 b 763 493 808 404 793 456 b 657 554 738 525 697 547 b 728 713 692 600 717 656 b 715 872 739 764 736 822 b 640 960 700 907 674 939 b 500 999 600 985 549 994 b 342 1003 447 1003 394 1003 b 221 996 301 1003 261 1004 b 142 964 193 992 164 982 b 108 911 126 950 115 931 b 153 729 90 851 99 760 b 226 715 174 717 201 714 b 351 725 268 715 310 722 b 418 721 374 726 396 726 b 446 669 440 717 451 693 b 415 625 442 651 432 633 b 299 594 381 604 332 618 b 269 535 281 582 272 557 b 289 435 265 501 268 461 b 356 399 304 414 331 403 b 490 386 376 396 471 393 b 504 258 546 363 556 289 b 371 247 465 236 414 238 b 156 303 299 263 231 303 b 82 278 131 303 103 294 b 44 79 28 236 13 139 b 128 15 61 49 96 29 b 321 -29 189 -11 254 -22 b 535 -24 392 -37 465 -39 z "},"4":{"ha":868,"x_min":0,"x_max":0,"o":"m 649 18 b 693 82 671 32 686 57 b 713 285 714 147 714 217 b 789 307 739 288 765 293 b 835 361 810 319 826 339 b 803 531 854 410 842 497 b 713 557 779 551 744 557 b 722 726 718 614 719 669 b 693 956 725 803 726 886 b 646 1011 683 978 665 999 b 339 942 558 1069 414 1014 b 174 746 278 882 224 815 b 69 594 136 697 100 647 b 22 443 43 547 24 496 b 72 311 21 396 39 343 b 125 285 86 297 106 289 b 286 283 178 275 232 279 b 376 288 297 283 365 288 b 375 133 376 236 372 185 b 406 42 376 101 385 67 b 488 -1 426 18 457 6 b 649 18 540 -14 604 -12 z m 318 507 b 293 538 306 511 296 525 b 385 721 276 599 331 688 b 444 728 403 731 428 739 b 461 646 467 715 467 671 b 371 518 449 596 415 546 b 318 507 356 508 335 501 z "},"5":{"ha":839,"x_min":0,"x_max":0,"o":"m 422 -19 b 583 11 476 -18 533 -11 b 724 131 639 36 688 81 b 763 547 810 249 825 411 b 650 679 739 600 701 653 b 510 706 607 700 557 707 b 310 650 440 703 371 682 b 303 776 308 667 303 760 b 533 760 332 775 506 763 b 636 772 568 758 604 760 b 692 810 657 781 676 793 b 731 917 717 838 729 879 b 713 983 732 940 728 967 b 664 1004 700 996 682 1003 b 321 1008 550 1008 435 1011 b 153 994 264 1007 207 1008 b 96 947 126 988 108 972 b 68 817 75 907 76 861 b 57 676 60 771 58 724 b 61 535 56 629 56 582 b 94 454 64 506 75 476 b 271 403 133 407 218 375 b 392 492 315 426 347 469 b 443 503 407 500 425 506 b 485 478 458 501 475 490 b 511 388 504 454 510 418 b 476 265 511 344 503 299 b 318 250 438 215 367 211 b 242 303 294 269 269 289 b 165 317 219 314 192 319 b 108 296 146 315 125 307 b 83 88 42 249 31 149 b 208 14 115 51 163 29 b 422 -19 276 -10 350 -21 z "},"6":{"ha":897,"x_min":0,"x_max":0,"o":"m 585 11 b 758 115 649 33 710 68 b 824 206 785 140 808 171 b 853 431 854 275 864 356 b 803 569 846 481 829 529 b 693 653 778 608 736 636 b 474 669 625 679 546 686 b 389 635 444 663 415 651 b 400 718 386 663 388 693 b 538 765 419 758 493 772 b 696 744 590 758 643 738 b 750 769 715 747 735 757 b 774 964 804 814 813 906 b 703 1013 756 989 733 1006 b 443 1019 619 1035 528 1033 b 194 903 353 1006 260 968 b 42 554 106 813 54 681 b 60 349 36 486 44 415 b 146 138 78 275 104 201 b 276 18 178 88 222 42 b 585 11 371 -22 486 -22 z m 467 211 b 417 257 444 217 428 236 b 465 469 383 325 403 426 b 574 435 503 496 551 476 b 529 232 606 375 582 278 b 467 211 513 218 489 207 z "},"7":{"ha":732,"x_min":0,"x_max":0,"o":"m 342 8 b 431 121 383 31 413 76 b 503 354 443 151 493 324 b 503 357 503 356 503 356 b 643 635 544 451 594 543 b 708 807 671 689 696 746 b 697 942 717 851 719 903 b 649 986 686 961 668 976 b 538 1014 615 1004 576 1011 b 178 989 418 1025 293 1025 b 72 926 139 976 99 957 b 31 849 53 904 39 876 b 35 740 21 814 21 774 b 99 668 46 711 71 683 b 204 643 131 650 168 644 b 386 681 267 642 329 657 b 276 515 350 625 311 571 b 154 258 226 435 181 350 b 142 103 140 208 132 154 b 342 8 160 17 264 -32 z "},"8":{"ha":814,"x_min":0,"x_max":0,"o":"m 464 -21 b 665 24 532 -18 606 -10 b 761 361 761 79 789 254 b 703 472 751 401 732 442 b 619 521 679 494 650 511 b 689 601 646 544 671 571 b 697 872 735 681 739 789 b 646 943 685 899 667 922 b 592 981 629 958 613 972 b 326 1001 508 1013 414 1011 b 178 949 274 996 221 979 b 81 794 128 915 92 854 b 106 635 72 742 83 683 b 207 531 126 590 167 557 b 128 478 178 521 150 501 b 60 347 94 442 72 394 b 49 183 46 294 40 238 b 81 86 53 150 63 115 b 146 29 97 63 121 43 b 293 -17 192 6 243 -10 b 464 -21 350 -25 407 -24 z m 375 611 b 328 636 358 615 339 622 b 318 685 317 649 318 668 b 338 744 319 706 322 729 b 394 765 351 760 374 764 b 489 746 415 768 472 760 b 506 721 497 740 503 731 b 493 625 514 696 511 643 b 375 611 472 603 406 604 z m 374 247 b 339 260 361 250 349 253 b 318 288 329 267 322 276 b 331 386 310 313 311 365 b 349 397 335 392 342 394 b 433 401 364 403 418 404 b 501 371 458 396 486 390 b 503 275 517 349 517 299 b 374 247 483 240 413 239 z "},"9":{"ha":893,"x_min":0,"x_max":0,"o":"m 383 0 b 639 83 474 3 568 28 b 840 418 743 163 813 290 b 850 625 856 486 856 556 b 792 851 842 701 825 781 b 681 986 767 904 731 956 b 544 1035 639 1011 592 1028 b 226 978 438 1054 322 1033 b 124 888 188 954 150 924 b 57 710 86 836 65 772 b 85 500 47 640 54 564 b 183 401 104 457 142 424 b 351 356 235 374 293 358 b 485 381 396 354 443 361 b 465 300 485 353 479 324 b 324 267 442 261 368 256 b 165 310 271 281 221 311 b 85 271 136 310 104 293 b 67 89 42 224 33 143 b 124 40 79 67 100 50 b 383 0 204 7 296 -3 z m 382 551 b 338 589 363 557 347 572 b 343 738 313 632 319 693 b 486 801 372 796 440 849 b 481 600 535 753 519 656 b 432 557 468 582 451 567 b 382 551 417 549 397 546 z "},"\n":{"ha":0,"x_min":0,"x_max":0,"o":""}," ":{"ha":417,"x_min":0,"x_max":0,"o":""},"!":{"ha":443,"x_min":0,"x_max":0,"o":"m 268 297 b 326 333 290 301 313 315 b 369 456 353 368 363 414 b 386 651 379 521 383 586 b 394 818 389 707 393 763 b 381 932 394 856 394 896 b 342 986 372 953 360 974 b 288 1007 326 999 307 1004 b 168 1008 249 1011 208 1011 b 104 992 147 1006 124 1001 b 69 953 90 982 78 968 b 50 864 57 925 53 894 b 56 703 46 811 50 756 b 56 700 56 701 56 701 b 111 333 57 624 64 393 b 171 300 125 317 149 304 b 268 297 203 294 236 292 z m 292 -1 b 344 136 346 14 357 82 b 318 193 340 156 333 179 b 263 213 303 207 282 211 b 197 213 240 215 218 215 b 138 193 176 211 154 206 b 108 57 106 169 101 96 b 125 21 111 43 117 31 b 292 -1 157 -12 247 -12 z "},"\"":{"ha":579,"x_min":0,"x_max":0,"o":"m 201 642 b 238 690 219 653 229 672 b 263 814 254 729 258 772 b 250 950 268 858 268 908 b 97 990 229 996 147 997 b 44 975 79 988 58 986 b 35 949 38 968 35 958 b 42 797 33 929 42 817 b 47 663 43 776 42 682 b 115 629 53 642 93 631 b 201 642 144 628 176 626 z m 479 639 b 514 681 496 647 507 664 b 536 756 525 704 533 729 b 544 883 543 799 549 842 b 531 950 543 906 539 929 b 378 990 511 996 428 996 b 326 974 360 988 339 986 b 315 949 319 968 317 958 b 324 794 315 929 322 815 b 328 663 324 775 322 682 b 396 629 335 640 374 631 b 479 639 424 626 454 626 z "},"«":{"ha":579,"x_min":0,"x_max":0,"o":"m 201 642 b 238 690 219 653 229 672 b 263 814 254 729 258 772 b 250 950 268 858 268 908 b 97 990 229 996 147 997 b 44 975 79 988 58 986 b 35 949 38 968 35 958 b 42 797 33 929 42 817 b 47 663 43 776 42 682 b 115 629 53 642 93 631 b 201 642 144 628 176 626 z m 479 639 b 514 681 496 647 507 664 b 536 756 525 704 533 729 b 544 883 543 799 549 842 b 531 950 543 906 539 929 b 378 990 511 996 428 996 b 326 974 360 988 339 986 b 315 949 319 968 317 958 b 324 794 315 929 322 815 b 328 663 324 775 322 682 b 396 629 335 640 374 631 b 479 639 424 626 454 626 z "},"»":{"ha":579,"x_min":0,"x_max":0,"o":"m 201 642 b 238 690 219 653 229 672 b 263 814 254 729 258 772 b 250 950 268 858 268 908 b 97 990 229 996 147 997 b 44 975 79 988 58 986 b 35 949 38 968 35 958 b 42 797 33 929 42 817 b 47 663 43 776 42 682 b 115 629 53 642 93 631 b 201 642 144 628 176 626 z m 479 639 b 514 681 496 647 507 664 b 536 756 525 704 533 729 b 544 883 543 799 549 842 b 531 950 543 906 539 929 b 378 990 511 996 428 996 b 326 974 360 988 339 986 b 315 949 319 968 317 958 b 324 794 315 929 322 815 b 328 663 324 775 322 682 b 396 629 335 640 374 631 b 479 639 424 626 454 626 z "},"„":{"ha":579,"x_min":0,"x_max":0,"o":"m 201 642 b 238 690 219 653 229 672 b 263 814 254 729 258 772 b 250 950 268 858 268 908 b 97 990 229 996 147 997 b 44 975 79 988 58 986 b 35 949 38 968 35 958 b 42 797 33 929 42 817 b 47 663 43 776 42 682 b 115 629 53 642 93 631 b 201 642 144 628 176 626 z m 479 639 b 514 681 496 647 507 664 b 536 756 525 704 533 729 b 544 883 543 799 549 842 b 531 950 543 906 539 929 b 378 990 511 996 428 996 b 326 974 360 988 339 986 b 315 949 319 968 317 958 b 324 794 315 929 322 815 b 328 663 324 775 322 682 b 396 629 335 640 374 631 b 479 639 424 626 454 626 z "},"‟":{"ha":579,"x_min":0,"x_max":0,"o":"m 201 642 b 238 690 219 653 229 672 b 263 814 254 729 258 772 b 250 950 268 858 268 908 b 97 990 229 996 147 997 b 44 975 79 988 58 986 b 35 949 38 968 35 958 b 42 797 33 929 42 817 b 47 663 43 776 42 682 b 115 629 53 642 93 631 b 201 642 144 628 176 626 z m 479 639 b 514 681 496 647 507 664 b 536 756 525 704 533 729 b 544 883 543 799 549 842 b 531 950 543 906 539 929 b 378 990 511 996 428 996 b 326 974 360 988 339 986 b 315 949 319 968 317 958 b 324 794 315 929 322 815 b 328 663 324 775 322 682 b 396 629 335 640 374 631 b 479 639 424 626 454 626 z "},"#":{"ha":1299,"x_min":0,"x_max":0,"o":"m 853 -64 b 943 1 889 -54 926 -31 b 965 122 964 38 964 82 b 1124 146 1019 124 1074 126 b 1229 293 1190 172 1256 228 b 1188 343 1221 314 1206 331 b 986 408 1132 386 1056 401 b 1003 507 990 442 996 474 b 1158 529 1056 508 1110 511 b 1263 678 1224 556 1290 613 b 1203 740 1251 704 1228 725 b 1081 783 1165 763 1124 776 b 1111 867 1092 811 1103 839 b 1121 935 1118 889 1124 913 b 956 1001 1111 1004 1025 1019 b 864 944 921 993 888 971 b 783 801 826 904 803 853 b 647 800 738 801 692 800 b 678 885 658 828 669 856 b 688 953 685 907 690 931 b 664 997 685 969 676 986 b 572 1028 642 1019 604 1028 b 431 964 517 1026 468 1004 b 339 789 386 915 360 851 b 192 767 289 785 239 778 b 114 733 164 760 135 751 b 82 581 68 697 49 628 b 144 531 97 558 121 542 b 254 504 179 515 217 508 b 232 397 246 468 239 433 b 89 356 182 389 131 383 b 33 274 61 338 42 306 b 49 196 26 247 32 219 b 110 147 64 175 86 158 b 206 122 140 133 174 126 b 233 4 207 82 211 38 b 267 -26 242 -8 254 -18 b 414 -46 310 -50 367 -57 b 507 14 450 -37 488 -17 b 532 125 526 46 531 88 b 639 128 567 126 603 126 b 657 3 639 86 639 42 b 853 -64 685 -62 783 -81 z m 567 508 b 694 511 608 510 651 511 b 672 417 686 481 679 449 b 551 415 632 415 592 415 b 567 508 556 446 560 478 z "},"$":{"ha":846,"x_min":0,"x_max":0,"o":"m 481 -100 b 525 -17 504 -78 519 -49 b 713 85 594 -6 665 32 b 785 296 763 140 792 222 b 739 422 781 340 765 386 b 643 500 714 456 679 481 b 475 564 590 528 531 544 b 360 644 439 578 365 607 b 431 688 354 678 397 689 b 493 671 453 686 474 681 b 636 628 538 650 586 631 b 725 647 667 626 699 632 b 792 860 792 686 821 788 b 721 939 778 892 750 918 b 554 1003 672 974 613 992 b 535 1071 550 1025 547 1050 b 383 1115 504 1119 439 1139 b 354 1092 372 1111 361 1103 b 346 1057 347 1082 344 1069 b 353 1003 346 1039 350 1021 b 190 942 296 994 239 974 b 85 831 149 913 111 875 b 50 635 51 774 36 700 b 101 526 57 594 76 557 b 236 429 136 483 185 450 b 407 378 290 407 351 399 b 472 335 431 368 457 357 b 469 283 485 318 486 294 b 344 286 444 268 372 278 b 194 339 294 301 246 328 b 50 163 100 357 35 257 b 82 93 54 138 65 113 b 168 28 104 65 136 43 b 353 -17 225 1 289 -11 b 353 -67 353 -33 351 -50 b 365 -110 353 -82 356 -97 b 404 -128 374 -121 389 -126 b 481 -100 431 -129 461 -118 z "},"%":{"ha":1261,"x_min":0,"x_max":0,"o":"m 411 -32 b 475 -15 433 -31 456 -26 b 538 47 501 -1 522 22 b 647 278 556 76 632 247 b 700 110 650 219 665 157 b 799 32 724 75 760 47 b 1057 26 878 -1 976 -4 b 1189 138 1111 47 1160 89 b 1232 356 1226 201 1240 282 b 1181 488 1226 403 1211 451 b 1024 574 1142 532 1083 564 b 794 542 949 586 864 576 b 965 776 849 622 901 704 b 1061 899 999 817 1033 854 b 1079 942 1069 913 1076 926 b 947 1065 1097 1015 1022 1068 b 854 1036 915 1064 882 1053 b 740 936 811 1011 774 975 b 613 775 694 885 653 831 b 560 947 613 835 599 901 b 403 1035 521 993 461 1024 b 253 1029 353 1042 301 1040 b 113 960 201 1018 151 996 b 44 861 82 933 60 899 b 43 639 18 792 19 708 b 115 529 57 597 82 557 b 218 478 144 504 181 488 b 410 478 281 463 347 461 b 308 289 372 417 338 354 b 254 140 286 242 265 192 b 254 67 249 115 247 89 b 411 -32 272 10 351 -36 z m 322 721 b 311 878 283 760 278 829 b 363 914 324 894 342 910 b 461 847 406 924 447 888 b 436 721 474 806 465 751 b 378 694 421 706 399 694 b 322 721 357 694 336 706 z m 913 321 b 983 454 903 376 929 440 b 1082 386 1026 464 1068 428 b 1057 260 1096 346 1088 290 b 1003 235 1043 246 1024 236 b 913 321 958 232 921 278 z "},"&":{"ha":1024,"x_min":0,"x_max":0,"o":"m 956 32 b 961 104 968 53 971 82 b 903 175 949 132 922 153 b 861 251 883 197 871 224 b 833 360 849 286 840 322 b 997 492 917 356 997 408 b 921 583 999 540 968 588 b 806 574 882 581 844 574 b 683 582 765 575 724 582 b 601 558 654 582 622 576 b 578 621 604 581 596 607 b 485 661 550 640 511 640 b 454 758 460 683 451 725 b 492 826 457 783 469 814 b 568 821 515 839 553 843 b 596 764 581 804 583 781 b 651 728 608 744 631 732 b 788 842 721 713 781 771 b 714 1004 793 903 765 964 b 561 1064 672 1039 615 1057 b 368 1040 496 1071 428 1064 b 169 824 274 1004 196 919 b 182 657 154 771 157 708 b 235 585 194 631 213 606 b 92 467 178 560 126 517 b 31 254 50 404 28 329 b 92 72 33 190 54 124 b 176 -1 114 43 143 17 b 319 -39 219 -25 271 -36 b 640 64 432 -44 551 -4 b 746 -43 667 21 700 -24 b 956 32 819 -74 917 -36 z m 392 206 b 336 265 367 218 347 242 b 382 479 306 333 321 438 b 435 496 397 489 415 496 b 526 490 465 497 496 489 b 569 501 542 490 557 493 b 572 331 561 446 575 388 b 554 254 572 304 568 276 b 392 206 524 200 447 179 z "},"'":{"ha":297,"x_min":0,"x_max":0,"o":"m 199 651 b 233 693 214 660 226 676 b 256 768 244 717 251 742 b 264 896 261 810 267 853 b 250 961 261 918 258 942 b 97 1001 229 1007 147 1008 b 44 986 79 1000 58 999 b 35 961 38 981 35 969 b 42 808 33 940 42 828 b 47 675 43 788 42 694 b 115 640 53 653 93 642 b 199 651 143 639 174 639 z "},"‚":{"ha":297,"x_min":0,"x_max":0,"o":"m 199 651 b 233 693 214 660 226 676 b 256 768 244 717 251 742 b 264 896 261 810 267 853 b 250 961 261 918 258 942 b 97 1001 229 1007 147 1008 b 44 986 79 1000 58 999 b 35 961 38 981 35 969 b 42 808 33 940 42 828 b 47 675 43 788 42 694 b 115 640 53 653 93 642 b 199 651 143 639 174 639 z "},"‛":{"ha":297,"x_min":0,"x_max":0,"o":"m 199 651 b 233 693 214 660 226 676 b 256 768 244 717 251 742 b 264 896 261 810 267 853 b 250 961 261 918 258 942 b 97 1001 229 1007 147 1008 b 44 986 79 1000 58 999 b 35 961 38 981 35 969 b 42 808 33 940 42 828 b 47 675 43 788 42 694 b 115 640 53 653 93 642 b 199 651 143 639 174 639 z "},"‹":{"ha":297,"x_min":0,"x_max":0,"o":"m 199 651 b 233 693 214 660 226 676 b 256 768 244 717 251 742 b 264 896 261 810 267 853 b 250 961 261 918 258 942 b 97 1001 229 1007 147 1008 b 44 986 79 1000 58 999 b 35 961 38 981 35 969 b 42 808 33 940 42 828 b 47 675 43 788 42 694 b 115 640 53 653 93 642 b 199 651 143 639 174 639 z "},"›":{"ha":297,"x_min":0,"x_max":0,"o":"m 199 651 b 233 693 214 660 226 676 b 256 768 244 717 251 742 b 264 896 261 810 267 853 b 250 961 261 918 258 942 b 97 1001 229 1007 147 1008 b 44 986 79 1000 58 999 b 35 961 38 981 35 969 b 42 808 33 940 42 828 b 47 675 43 788 42 694 b 115 640 53 653 93 642 b 199 651 143 639 174 639 z "},"(":{"ha":603,"x_min":0,"x_max":0,"o":"m 532 14 b 556 46 542 22 550 35 b 539 238 582 100 582 196 b 493 258 526 249 510 256 b 376 288 454 267 411 269 b 292 381 339 307 310 343 b 263 615 257 451 247 538 b 314 725 271 654 288 694 b 390 779 333 749 361 768 b 501 815 428 792 468 794 b 551 931 538 840 557 885 b 521 996 547 954 539 981 b 447 1021 501 1014 472 1019 b 367 1010 419 1022 392 1018 b 163 857 286 982 211 926 b 43 465 86 744 49 601 b 90 192 39 374 49 275 b 238 29 122 126 174 64 b 532 14 315 -11 467 -44 z "},")":{"ha":604,"x_min":0,"x_max":0,"o":"m 204 -17 b 368 31 261 -11 318 3 b 510 185 429 64 478 122 b 563 449 551 264 564 360 b 447 849 558 588 522 733 b 235 1010 397 924 321 982 b 69 979 182 1028 97 1028 b 124 804 32 915 56 833 b 218 776 154 792 188 789 b 288 728 244 767 269 750 b 340 619 314 699 332 658 b 307 371 358 538 347 444 b 219 283 288 335 257 300 b 111 258 186 268 147 267 b 67 239 94 256 78 249 b 35 179 50 224 39 201 b 38 72 26 144 28 107 b 83 6 46 46 60 19 b 204 -17 117 -17 163 -19 z "},"*":{"ha":585,"x_min":0,"x_max":0,"o":"m 360 513 b 378 579 378 528 381 556 b 368 649 376 603 374 625 b 442 596 392 629 415 610 b 500 588 460 586 482 581 b 549 656 525 597 543 628 b 546 699 551 669 553 686 b 411 776 529 726 440 764 b 493 815 439 789 467 801 b 535 844 508 824 524 832 b 493 949 568 876 542 942 b 432 931 472 950 450 942 b 368 885 408 918 388 903 b 378 993 371 901 381 976 b 285 1038 371 1031 322 1039 b 238 1025 268 1036 251 1035 b 221 997 228 1019 222 1008 b 228 864 213 953 221 908 b 171 929 210 886 192 910 b 103 953 153 946 126 957 b 61 921 85 950 71 935 b 44 851 49 901 38 875 b 78 808 50 835 64 819 b 153 765 100 789 126 778 b 51 696 117 746 81 725 b 94 581 15 657 40 588 b 169 615 121 578 149 597 b 226 663 189 631 207 647 b 215 594 225 654 217 603 b 218 539 214 576 211 556 b 247 510 222 526 235 515 b 360 513 276 496 336 490 z "},"+":{"ha":803,"x_min":0,"x_max":0,"o":"m 508 96 b 538 225 535 131 539 181 b 665 229 579 225 624 222 b 756 281 699 236 733 253 b 742 460 794 331 786 415 b 657 499 719 481 688 493 b 528 506 614 507 571 507 b 529 624 532 544 536 585 b 489 703 525 653 511 683 b 350 717 456 735 392 738 b 283 631 318 700 292 665 b 274 507 272 590 272 547 b 164 506 236 507 200 508 b 49 453 122 504 75 486 b 29 329 24 419 21 369 b 64 267 35 306 46 282 b 140 240 85 250 113 243 b 267 238 182 235 225 235 b 288 106 265 193 264 144 b 332 64 297 88 314 74 b 508 96 386 39 472 49 z "},",":{"ha":353,"x_min":0,"x_max":0,"o":"m 253 -83 b 322 115 294 -26 318 44 b 285 253 325 163 318 218 b 243 278 274 265 258 274 b 110 267 200 292 150 286 b 53 221 88 257 64 243 b 36 164 44 203 39 183 b 31 94 31 140 28 117 b 61 28 32 69 43 43 b 197 -7 97 -1 150 -10 b 188 -54 196 -24 193 -39 b 100 -128 172 -92 139 -119 b 88 -132 96 -129 90 -129 b 99 -157 78 -142 86 -157 b 253 -83 156 -157 219 -129 z "},"-":{"ha":781,"x_min":0,"x_max":0,"o":"m 206 256 b 394 267 268 257 331 265 b 567 261 451 268 510 263 b 671 275 601 261 639 261 b 732 326 694 286 717 304 b 676 517 778 392 749 481 b 567 546 643 533 604 542 b 410 547 515 550 463 549 b 211 539 344 544 276 547 b 93 510 171 535 129 526 b 47 465 74 500 57 483 b 31 364 33 433 25 397 b 88 278 36 328 58 296 b 206 256 122 258 165 254 z "},".":{"ha":336,"x_min":0,"x_max":0,"o":"m 261 26 b 300 93 282 42 294 68 b 307 181 307 121 308 151 b 301 213 306 192 306 201 b 142 286 283 269 201 294 b 69 254 115 283 89 272 b 38 194 53 239 43 217 b 31 108 31 167 28 138 b 50 53 32 89 38 68 b 167 6 76 19 125 7 b 261 26 199 4 235 7 z "},"/":{"ha":818,"x_min":0,"x_max":0,"o":"m 171 -32 b 236 -15 193 -31 217 -26 b 299 49 261 0 283 24 b 344 143 317 79 331 111 b 581 579 411 294 488 442 b 725 776 626 647 672 715 b 822 899 760 817 794 854 b 840 942 831 913 836 926 b 708 1065 858 1015 783 1068 b 615 1036 675 1064 643 1053 b 501 936 572 1011 535 975 b 361 757 450 881 406 819 b 360 756 361 757 361 757 b 194 519 300 681 246 601 b 72 299 150 447 108 374 b 14 140 49 247 26 194 b 15 67 8 115 7 89 b 171 -32 33 10 113 -36 z "},":":{"ha":371,"x_min":0,"x_max":0,"o":"m 285 469 b 324 535 304 485 318 510 b 331 622 331 564 332 593 b 325 654 329 633 328 644 b 165 729 307 711 225 736 b 93 697 139 725 111 715 b 61 638 76 681 67 658 b 54 550 54 608 51 579 b 74 494 56 531 61 510 b 190 447 100 463 149 450 b 285 469 222 446 258 450 z m 271 14 b 310 79 292 29 304 54 b 317 168 317 108 318 139 b 311 199 315 178 315 189 b 151 274 293 256 211 282 b 79 242 125 269 99 260 b 47 182 63 226 53 204 b 40 96 40 154 38 124 b 60 39 42 76 47 54 b 176 -7 86 7 135 -6 b 271 14 208 -8 244 -6 z "},";":{"ha":374,"x_min":0,"x_max":0,"o":"m 283 469 b 324 535 304 485 318 510 b 329 622 331 564 332 593 b 325 654 329 633 328 644 b 165 729 307 711 225 736 b 92 697 139 725 111 715 b 61 638 76 681 67 658 b 53 550 54 608 50 579 b 72 494 56 531 60 510 b 190 447 100 463 149 450 b 283 469 222 446 258 450 z m 263 -83 b 332 115 304 -26 328 44 b 294 253 335 163 328 218 b 253 278 283 265 268 274 b 119 267 210 292 160 286 b 63 221 97 257 74 243 b 46 164 54 203 49 183 b 40 94 40 140 38 117 b 71 28 42 69 53 43 b 207 -7 107 -1 160 -10 b 197 -54 206 -24 203 -39 b 110 -128 182 -92 149 -119 b 97 -132 106 -129 100 -129 b 108 -157 88 -142 96 -157 b 263 -83 165 -157 229 -129 z "},"<":{"ha":599,"x_min":0,"x_max":0,"o":"m 564 572 b 551 633 569 585 556 619 b 486 754 535 676 515 718 b 307 881 440 811 378 865 b 233 875 282 886 254 886 b 192 736 186 851 172 785 b 250 672 203 708 224 686 b 528 579 336 626 442 626 b 564 572 540 572 557 560 z m 169 360 b 467 428 271 367 369 397 b 519 478 499 439 543 454 b 486 500 510 488 497 494 b 369 549 449 521 410 536 b 207 582 317 564 263 576 b 88 574 168 586 125 588 b 38 538 68 567 50 554 b 19 490 28 525 21 507 b 151 358 14 417 78 358 b 169 360 157 358 163 360 z m 381 161 b 539 279 407 175 517 260 b 553 300 546 285 556 293 b 490 324 546 317 507 321 b 274 313 419 336 342 336 b 192 240 239 300 203 275 b 279 135 175 186 222 138 b 381 161 314 133 349 144 z "},"=":{"ha":858,"x_min":0,"x_max":0,"o":"m 689 413 b 775 446 719 415 753 424 b 806 606 810 479 825 561 b 772 653 797 622 786 640 b 676 693 744 674 711 686 b 481 714 613 707 547 713 b 222 693 394 717 307 711 b 158 675 200 689 179 681 b 71 622 125 665 92 649 b 72 458 31 575 25 500 b 144 429 92 442 118 432 b 325 432 204 421 265 429 b 515 424 388 435 451 432 b 689 413 572 417 631 407 z m 693 46 b 779 79 724 50 757 58 b 810 239 814 113 829 194 b 775 286 801 257 790 274 b 681 326 749 307 714 319 b 485 349 617 342 550 346 b 226 326 399 350 311 344 b 163 308 204 322 183 314 b 74 257 129 299 96 283 b 76 93 35 208 29 133 b 149 63 96 75 122 67 b 329 67 208 54 268 64 b 518 58 392 69 456 65 b 693 46 576 51 635 40 z "},">":{"ha":600,"x_min":0,"x_max":0,"o":"m 71 579 b 353 674 158 626 267 625 b 406 833 408 704 433 776 b 367 875 397 850 383 867 b 292 881 344 886 317 886 b 115 756 222 864 161 811 b 44 619 82 715 61 667 b 35 585 40 608 36 597 b 42 568 35 578 35 569 b 71 579 53 567 63 574 z m 581 482 b 546 556 581 511 568 538 b 181 531 471 617 271 565 b 101 493 153 521 126 508 b 74 467 94 488 75 475 b 97 442 71 456 88 447 b 308 378 126 428 276 385 b 435 360 350 368 393 363 b 581 482 511 354 581 407 z m 325 135 b 408 242 381 139 425 189 b 328 313 397 275 361 300 b 108 324 258 336 181 336 b 47 300 92 321 54 315 b 61 279 44 293 54 285 b 215 164 82 260 189 176 b 325 135 249 146 288 131 z "},"?":{"ha":724,"x_min":0,"x_max":0,"o":"m 367 226 b 417 292 397 238 414 260 b 410 379 418 321 415 350 b 621 474 486 389 569 417 b 671 556 643 497 660 526 b 692 733 693 613 699 675 b 633 900 686 792 667 851 b 538 988 608 936 575 968 b 442 1017 507 1003 475 1011 b 278 1015 388 1024 332 1022 b 126 949 224 1007 169 983 b 32 753 67 901 32 828 b 78 631 32 708 47 660 b 231 608 118 592 185 583 b 263 663 249 619 261 642 b 275 747 264 690 263 721 b 353 783 288 774 322 790 b 401 663 400 774 408 710 b 369 554 397 625 388 588 b 319 503 358 533 340 513 b 210 479 304 496 225 483 b 156 446 190 472 169 463 b 133 386 142 429 136 407 b 135 296 129 356 133 325 b 140 249 135 279 132 261 b 249 215 156 224 221 215 b 367 226 268 214 349 221 z m 349 -8 b 381 19 361 -3 372 7 b 378 142 400 51 404 114 b 308 171 361 160 333 169 b 196 167 271 175 233 172 b 146 136 176 164 157 153 b 147 13 126 104 125 42 b 204 -11 160 -4 183 -10 b 282 -17 229 -14 256 -15 b 349 -8 304 -17 328 -17 z "},"@":{"ha":1215,"x_min":0,"x_max":0,"o":"m 725 -69 b 883 -29 779 -64 833 -51 b 951 167 958 6 993 94 b 893 214 939 188 917 207 b 631 228 856 225 671 225 b 450 254 569 231 507 235 b 363 307 418 267 388 285 b 299 790 233 425 204 640 b 417 897 326 836 368 875 b 625 940 481 928 554 933 b 853 875 706 949 789 925 b 931 779 885 850 914 817 b 950 674 946 746 953 708 b 911 564 947 635 932 597 b 879 544 904 554 892 544 b 835 603 851 544 838 576 b 829 761 831 656 850 713 b 651 900 800 831 726 890 b 408 801 565 911 467 867 b 353 413 326 711 289 517 b 539 325 392 349 468 313 b 674 400 589 335 639 363 b 978 299 728 294 869 253 b 1128 442 1042 325 1096 379 b 1126 908 1201 586 1200 764 b 1039 1019 1104 950 1076 992 b 886 1092 994 1053 940 1075 b 560 1114 782 1121 668 1128 b 339 1049 483 1104 406 1085 b 171 897 272 1013 215 957 b 40 454 78 772 29 610 b 297 18 53 279 150 114 b 401 -32 331 -3 365 -19 b 725 -69 506 -67 618 -81 z m 538 511 b 532 657 504 543 511 617 b 600 700 546 682 574 708 b 643 608 631 690 643 640 b 628 547 643 588 638 567 b 538 511 608 511 567 483 z "},"A":{"ha":918,"x_min":0,"x_max":0,"o":"m 307 -15 b 392 38 339 -8 372 10 b 411 111 407 58 411 86 b 400 203 411 142 407 172 b 485 208 428 207 457 210 b 557 200 510 208 533 204 b 535 107 547 169 536 139 b 550 50 533 88 539 67 b 586 15 558 36 572 25 b 749 -14 632 -14 694 -26 b 822 39 778 -8 810 11 b 871 267 838 72 867 229 b 865 660 882 397 890 531 b 772 885 850 739 821 819 b 636 978 740 929 688 958 b 275 981 524 1019 390 1017 b 125 861 214 961 160 915 b 43 550 67 771 47 657 b 58 171 39 424 42 296 b 88 69 63 136 69 100 b 176 -3 108 38 140 13 b 307 -15 217 -19 264 -25 z m 489 383 b 363 371 447 381 404 379 b 390 583 351 442 353 522 b 525 622 418 629 478 651 b 583 526 557 603 575 564 b 593 371 596 476 597 422 b 489 383 560 379 524 385 z "},"B":{"ha":867,"x_min":0,"x_max":0,"o":"m 336 -22 b 551 7 408 -21 482 -12 b 725 75 611 24 672 43 b 828 179 767 100 806 136 b 811 383 858 240 849 326 b 693 474 785 425 740 457 b 778 601 735 503 765 551 b 754 807 796 668 785 744 b 619 958 725 867 678 924 b 456 1000 571 988 511 1000 b 271 981 393 1001 331 996 b 147 918 226 969 181 950 b 81 814 118 890 96 853 b 44 629 58 756 49 692 b 86 76 35 444 50 257 b 99 26 90 60 93 43 b 114 3 100 18 106 7 b 336 -22 150 -28 288 -24 z m 313 694 b 471 785 315 775 401 825 b 468 600 543 743 542 640 b 313 694 397 561 310 614 z m 392 149 b 367 297 339 176 335 247 b 419 338 378 317 397 332 b 511 231 478 353 519 290 b 392 149 501 169 446 119 z "},"C":{"ha":853,"x_min":0,"x_max":0,"o":"m 639 19 b 772 135 692 43 742 83 b 813 290 800 181 811 238 b 807 369 813 317 814 344 b 624 447 785 440 697 465 b 578 413 606 443 590 428 b 550 350 563 396 549 374 b 535 249 551 317 551 279 b 392 322 497 183 419 253 b 369 439 376 358 371 399 b 385 606 368 494 376 551 b 411 690 389 635 396 665 b 443 718 419 701 429 714 b 497 704 461 725 485 718 b 513 658 507 692 511 674 b 525 564 517 626 511 593 b 594 517 538 539 567 524 b 806 613 679 493 781 528 b 551 992 858 788 733 964 b 368 989 492 1001 429 1000 b 229 938 319 981 271 964 b 94 781 171 900 122 843 b 35 365 38 653 18 504 b 117 128 44 282 69 196 b 218 33 143 90 179 57 b 331 -4 253 14 292 4 b 639 19 431 -26 544 -22 z "},"D":{"ha":872,"x_min":0,"x_max":0,"o":"m 613 39 b 749 147 664 65 713 103 b 831 321 788 197 815 260 b 829 635 854 424 850 532 b 701 879 811 725 763 810 b 574 979 665 919 624 958 b 360 1014 507 1008 432 1018 b 157 953 289 1011 215 993 b 81 858 124 931 94 896 b 56 732 67 818 60 775 b 61 258 39 575 50 417 b 89 42 63 221 71 75 b 178 -14 106 11 143 -6 b 293 -25 215 -24 254 -25 b 613 39 401 -25 515 -10 z m 406 306 b 367 506 372 336 368 460 b 417 693 365 561 368 668 b 536 594 475 722 522 657 b 531 382 553 525 550 450 b 493 310 522 356 513 329 b 406 306 471 283 432 282 z "},"E":{"ha":828,"x_min":0,"x_max":0,"o":"m 704 26 b 772 75 731 38 756 53 b 803 169 793 101 803 136 b 658 313 803 253 740 329 b 503 254 638 307 524 260 b 411 258 474 246 439 243 b 332 381 368 281 344 333 b 465 381 376 378 421 378 b 546 393 493 382 521 383 b 586 422 561 399 576 408 b 581 546 608 458 607 511 b 514 572 567 565 538 569 b 329 572 490 574 354 572 b 374 682 338 611 351 650 b 426 729 388 701 406 718 b 501 739 449 740 476 743 b 601 699 536 731 568 711 b 711 696 636 688 676 683 b 761 739 732 703 749 721 b 794 844 782 769 792 807 b 789 914 797 868 796 892 b 746 974 782 938 765 958 b 632 1014 714 997 672 1008 b 443 1021 569 1024 506 1022 b 238 964 372 1018 296 1004 b 82 751 164 915 111 835 b 38 535 58 682 44 608 b 43 297 29 456 29 375 b 156 69 58 214 90 124 b 263 14 186 44 224 26 b 440 -17 319 -6 381 -12 b 704 26 529 -24 622 -8 z "},"F":{"ha":744,"x_min":0,"x_max":0,"o":"m 357 40 b 365 96 364 57 367 76 b 354 179 364 124 356 151 b 376 264 353 203 358 251 b 574 289 404 283 540 281 b 617 307 589 292 604 299 b 651 485 665 343 675 431 b 621 526 644 501 635 515 b 558 549 603 539 581 546 b 461 553 526 554 493 551 b 351 583 422 554 358 546 b 351 656 347 604 333 644 b 385 663 357 660 378 661 b 574 653 447 664 510 650 b 694 692 615 654 664 663 b 729 769 715 711 725 742 b 674 947 738 831 718 903 b 563 996 644 975 603 988 b 418 1003 515 1004 467 1006 b 190 971 342 1000 263 999 b 115 911 161 958 135 936 b 61 782 88 875 71 828 b 47 571 47 713 47 642 b 92 43 49 481 56 125 b 118 4 97 28 107 14 b 181 -21 136 -10 158 -17 b 357 40 239 -33 331 -15 z "},"G":{"ha":854,"x_min":0,"x_max":0,"o":"m 639 19 b 772 133 692 43 742 83 b 813 289 800 179 811 235 b 804 376 814 318 815 349 b 747 442 794 403 774 431 b 658 454 719 453 689 454 b 567 453 628 454 597 456 b 503 429 544 450 521 444 b 499 326 471 403 468 356 b 549 300 513 313 531 304 b 474 222 544 264 510 224 b 401 265 444 221 418 243 b 342 471 360 322 347 400 b 347 632 338 524 338 579 b 386 719 354 664 365 696 b 481 765 410 746 446 768 b 536 692 515 761 538 726 b 518 593 535 658 517 626 b 543 542 519 574 529 556 b 615 511 563 525 589 515 b 761 546 664 504 721 515 b 807 615 783 564 799 588 b 549 992 858 792 731 965 b 253 951 450 1007 342 999 b 94 778 183 915 125 850 b 40 331 33 640 15 479 b 142 97 54 247 85 161 b 331 -4 189 43 261 10 b 639 19 432 -26 544 -22 z "},"H":{"ha":1069,"x_min":0,"x_max":0,"o":"m 344 -15 b 454 40 385 -7 429 8 b 488 154 479 71 488 114 b 450 340 486 217 471 281 b 619 338 504 353 564 353 b 588 100 593 263 572 179 b 625 31 593 74 607 49 b 710 -10 649 10 679 -3 b 899 26 774 -25 846 -11 b 947 72 918 39 935 54 b 1004 206 975 111 992 158 b 1028 344 1018 250 1024 297 b 1029 496 1032 394 1032 446 b 994 790 1022 594 1017 694 b 913 972 979 856 961 926 b 654 957 840 1043 722 1032 b 608 822 624 921 610 869 b 625 639 606 761 613 699 b 443 628 567 624 503 617 b 460 839 458 696 467 768 b 432 933 457 872 450 906 b 247 1017 393 993 319 1026 b 149 964 210 1011 175 993 b 85 829 115 926 99 876 b 46 549 60 738 47 643 b 46 547 46 549 46 549 b 43 325 38 474 38 399 b 100 108 50 251 67 175 b 150 40 113 83 128 60 b 344 -15 201 -3 278 -26 z "},"I":{"ha":496,"x_min":0,"x_max":0,"o":"m 390 36 b 439 239 432 92 436 169 b 443 779 443 310 446 707 b 421 915 440 825 438 872 b 375 979 411 940 396 963 b 294 1011 351 996 324 1007 b 156 981 247 1018 196 1007 b 92 907 128 963 106 936 b 65 789 74 871 69 829 b 53 550 57 710 54 629 b 51 301 50 467 49 385 b 72 101 53 233 54 165 b 115 35 79 75 96 53 b 260 -19 154 1 208 -19 b 390 36 307 -19 361 -1 z "},"J":{"ha":863,"x_min":0,"x_max":0,"o":"m 478 0 b 797 307 631 38 754 157 b 824 576 822 394 825 486 b 807 832 822 661 821 747 b 765 960 800 876 790 922 b 554 994 728 1013 617 1014 b 490 957 531 986 508 975 b 460 908 476 944 467 926 b 444 818 449 879 447 849 b 486 433 439 765 483 488 b 475 342 488 403 486 371 b 364 294 456 289 393 249 b 325 447 335 339 354 403 b 103 482 282 510 174 515 b 50 442 83 474 64 458 b 14 358 32 418 19 388 b 56 131 -1 283 15 197 b 119 61 72 104 93 79 b 478 0 219 -8 361 -28 z "},"K":{"ha":1003,"x_min":0,"x_max":0,"o":"m 483 101 b 478 193 488 132 483 164 b 443 347 474 213 447 328 b 688 61 526 254 600 151 b 771 4 711 38 739 14 b 867 7 801 -6 836 -3 b 926 258 972 40 999 174 b 790 382 886 304 836 342 b 681 486 751 415 715 450 b 896 657 710 507 868 633 b 965 747 924 682 950 713 b 981 821 975 769 982 796 b 856 968 979 885 919 957 b 736 940 815 975 771 963 b 611 831 689 911 650 871 b 413 608 542 760 479 681 b 415 742 411 653 411 697 b 422 890 419 792 426 840 b 394 956 421 914 411 938 b 157 968 333 1024 222 1029 b 83 843 121 935 97 889 b 42 603 58 765 47 685 b 85 174 31 460 40 311 b 126 83 94 142 108 111 b 176 21 139 60 156 36 b 333 -28 222 -14 276 -31 b 483 101 410 -26 469 26 z "},"L":{"ha":707,"x_min":0,"x_max":0,"o":"m 572 -1 b 669 42 607 4 644 17 b 685 250 717 89 719 192 b 599 299 667 278 631 294 b 454 294 550 304 501 289 b 403 318 435 296 415 304 b 383 407 383 342 382 376 b 399 632 385 482 390 557 b 415 840 407 701 421 771 b 365 967 413 886 397 935 b 129 956 301 1032 194 1019 b 79 861 104 931 90 894 b 51 704 64 810 57 757 b 43 460 43 624 40 542 b 81 186 44 368 54 275 b 172 50 96 133 126 82 b 374 -4 229 10 304 -3 b 572 -1 440 -6 507 -11 z "},"M":{"ha":1190,"x_min":0,"x_max":0,"o":"m 371 -7 b 460 82 413 8 443 39 b 467 263 481 138 476 203 b 396 618 458 314 396 567 b 458 544 407 608 450 556 b 554 471 485 514 517 483 b 628 472 578 464 604 463 b 733 550 650 479 717 533 b 794 618 742 558 785 611 b 736 319 796 572 746 364 b 717 168 725 269 715 218 b 738 69 717 135 722 100 b 979 0 779 -18 890 -40 b 1065 94 1018 18 1049 56 b 1118 289 1093 156 1106 224 b 1150 607 1140 393 1151 500 b 1140 808 1150 674 1156 743 b 1043 968 1125 868 1093 931 b 883 1008 999 1001 938 1013 b 768 972 843 1004 803 993 b 649 875 725 944 686 911 b 604 842 636 863 622 847 b 553 861 586 838 565 847 b 475 939 529 889 504 917 b 222 1001 408 994 307 1022 b 133 956 189 994 157 978 b 51 810 92 918 65 864 b 40 608 36 744 42 676 b 72 292 39 503 51 396 b 125 93 85 224 97 156 b 203 4 142 57 168 24 b 371 -7 253 -22 318 -28 z "},"N":{"ha":1069,"x_min":0,"x_max":0,"o":"m 364 31 b 411 190 399 74 407 135 b 417 363 415 247 417 304 b 618 89 474 264 535 165 b 743 24 653 58 696 31 b 853 53 781 19 822 32 b 957 181 899 85 932 132 b 1025 456 999 265 1015 361 b 1028 757 1036 556 1038 657 b 982 921 1021 814 1010 871 b 908 997 965 951 940 981 b 775 1021 868 1018 819 1026 b 676 968 735 1017 701 999 b 622 825 643 929 625 876 b 657 557 615 736 636 644 b 396 936 569 683 500 825 b 372 958 393 940 375 956 b 257 1014 346 992 300 1013 b 85 900 182 1015 113 969 b 65 792 72 865 69 828 b 53 553 57 713 54 633 b 51 301 50 469 49 385 b 71 101 53 233 54 165 b 126 22 79 69 101 42 b 242 -19 160 -3 201 -19 b 364 31 286 -21 336 -3 z "},"O":{"ha":922,"x_min":0,"x_max":0,"o":"m 581 15 b 756 124 646 36 707 75 b 878 332 811 181 854 254 b 863 697 914 451 908 582 b 760 858 839 757 803 813 b 581 971 710 910 647 950 b 368 979 511 993 439 996 b 168 863 293 960 222 918 b 38 628 106 799 60 714 b 35 376 18 546 18 458 b 164 128 53 285 99 194 b 342 15 213 76 275 36 b 581 15 419 -10 503 -10 z m 297 489 b 500 731 261 622 364 754 b 601 672 539 724 575 701 b 565 388 678 586 660 454 b 297 489 468 318 331 374 z "},"P":{"ha":865,"x_min":0,"x_max":0,"o":"m 326 -19 b 397 25 353 -12 381 3 b 422 117 417 50 424 85 b 383 281 417 172 400 226 b 561 261 440 261 501 254 b 706 303 611 267 660 282 b 813 425 754 326 792 375 b 843 678 846 503 854 594 b 756 881 832 751 806 826 b 518 1000 696 946 606 989 b 271 983 436 1011 349 1010 b 154 918 229 969 186 950 b 76 769 115 878 92 824 b 40 457 46 669 38 563 b 58 203 43 372 43 286 b 122 39 69 146 89 88 b 172 -4 135 21 153 7 b 326 -19 218 -28 276 -33 z m 394 572 b 393 689 383 608 382 651 b 450 767 401 719 422 751 b 499 774 464 775 483 778 b 553 717 524 765 542 740 b 553 550 575 667 578 600 b 501 496 542 528 525 506 b 394 572 453 474 410 521 z "},"Q":{"ha":965,"x_min":0,"x_max":0,"o":"m 821 -151 b 917 -106 856 -149 893 -132 b 929 90 961 -53 967 33 b 828 218 900 136 863 176 b 863 697 911 361 925 542 b 760 858 839 757 803 813 b 581 971 710 910 647 950 b 368 979 511 993 439 996 b 168 863 293 960 222 918 b 38 628 106 799 60 714 b 35 376 18 546 18 458 b 164 128 53 285 99 194 b 342 15 213 76 275 36 b 647 43 443 -17 554 -7 b 706 -78 669 4 685 -37 b 743 -131 715 -97 726 -117 b 821 -151 764 -147 794 -153 z m 297 489 b 500 731 261 622 364 754 b 601 672 539 724 575 701 b 565 388 678 586 660 454 b 297 489 468 318 331 374 z "},"R":{"ha":883,"x_min":0,"x_max":0,"o":"m 326 -19 b 396 22 353 -12 379 1 b 422 111 415 46 424 81 b 425 215 421 131 417 197 b 485 231 435 236 464 239 b 563 158 518 218 547 190 b 589 43 578 122 575 81 b 628 -1 594 25 610 8 b 754 -14 665 -21 715 -29 b 807 31 776 -6 794 11 b 829 110 821 54 828 82 b 813 225 832 149 828 189 b 740 324 799 264 771 297 b 818 438 776 353 801 394 b 843 678 847 513 854 599 b 756 881 832 751 806 826 b 518 1000 696 946 606 989 b 271 983 436 1011 349 1010 b 154 918 229 969 186 950 b 76 769 115 878 92 824 b 40 457 46 669 38 563 b 58 203 43 372 43 286 b 122 39 69 146 89 88 b 172 -4 135 21 153 7 b 326 -19 218 -28 276 -33 z m 394 572 b 393 689 383 608 382 651 b 450 767 401 719 422 751 b 499 774 464 775 483 778 b 553 717 524 765 542 740 b 553 550 575 667 578 600 b 501 496 542 528 525 506 b 394 572 453 474 410 521 z "},"S":{"ha":821,"x_min":0,"x_max":0,"o":"m 460 -22 b 564 -4 494 -21 531 -15 b 736 131 633 18 699 68 b 774 296 765 179 779 240 b 728 422 769 340 754 386 b 632 500 703 456 668 481 b 464 564 579 528 521 544 b 349 644 428 578 354 607 b 421 688 343 678 388 689 b 482 671 442 686 463 681 b 625 628 526 650 575 631 b 714 647 656 626 688 632 b 781 860 781 686 810 788 b 704 943 767 894 736 922 b 526 1004 651 978 589 996 b 335 1001 463 1013 399 1011 b 119 890 256 989 175 950 b 36 725 76 846 46 786 b 90 526 25 653 44 583 b 225 429 125 483 174 450 b 396 378 281 407 340 399 b 463 335 421 368 447 357 b 458 283 474 318 475 294 b 333 286 433 268 363 278 b 183 339 283 301 236 328 b 40 163 89 357 24 257 b 90 71 46 128 65 94 b 251 -3 135 32 194 10 b 460 -22 319 -18 390 -22 z "},"T":{"ha":794,"x_min":0,"x_max":0,"o":"m 428 -24 b 569 128 501 -1 551 54 b 583 307 582 186 583 247 b 557 660 585 424 572 542 b 672 665 596 656 635 656 b 742 700 697 671 722 683 b 779 914 792 747 811 853 b 675 993 760 953 717 979 b 478 1024 611 1014 543 1017 b 240 1022 399 1032 318 1033 b 78 972 185 1015 126 1000 b 14 890 47 956 24 924 b 58 682 -3 831 10 721 b 197 646 96 653 150 643 b 183 471 194 588 190 529 b 160 211 175 385 164 297 b 165 113 158 178 157 144 b 428 -24 194 -1 317 -57 z "},"U":{"ha":908,"x_min":0,"x_max":0,"o":"m 515 -17 b 735 104 604 -8 683 36 b 807 232 764 143 789 186 b 871 719 864 386 885 557 b 822 949 867 757 838 915 b 750 1003 810 976 779 996 b 606 983 703 1014 649 1006 b 556 947 586 975 568 963 b 535 876 540 928 532 900 b 564 765 538 838 554 801 b 583 463 590 668 607 561 b 522 364 575 425 556 383 b 390 404 476 339 417 361 b 361 489 374 431 365 460 b 364 631 353 536 356 585 b 407 828 376 697 399 761 b 397 942 413 865 415 908 b 303 1004 379 975 339 997 b 68 875 204 1025 94 971 b 49 715 54 822 51 768 b 43 421 42 617 39 518 b 119 133 49 321 65 217 b 282 6 156 75 215 25 b 515 -17 357 -17 438 -25 z "},"V":{"ha":965,"x_min":0,"x_max":0,"o":"m 510 -21 b 661 56 565 -15 621 15 b 807 292 726 121 771 206 b 897 539 842 372 872 454 b 947 763 919 611 939 686 b 936 899 951 807 953 856 b 883 968 926 925 907 951 b 817 990 864 982 840 989 b 713 967 781 993 744 982 b 607 707 646 936 614 781 b 590 500 600 638 600 568 b 506 339 583 453 549 358 b 432 415 467 322 444 375 b 403 596 415 474 407 535 b 385 872 397 688 400 781 b 336 969 379 908 363 944 b 226 1010 308 997 265 1011 b 111 967 186 1008 146 989 b 63 921 93 956 75 940 b 39 865 51 904 44 885 b 46 544 15 761 25 649 b 165 207 68 426 106 310 b 293 49 200 147 242 92 b 510 -21 351 -1 433 -28 z "},"W":{"ha":1190,"x_min":0,"x_max":0,"o":"m 968 -12 b 1056 32 1000 -6 1032 10 b 1139 179 1097 69 1125 125 b 1150 383 1156 244 1150 315 b 1118 700 1151 489 1140 596 b 1065 896 1106 767 1093 835 b 978 989 1047 935 1017 972 b 742 931 897 1026 786 1007 b 718 843 728 904 721 874 b 736 671 713 786 722 728 b 794 371 746 626 794 417 b 736 436 785 379 744 428 b 643 511 708 465 676 490 b 563 521 619 525 589 526 b 504 490 540 515 522 503 b 433 413 476 468 454 440 b 396 372 421 399 411 383 b 464 708 396 422 453 658 b 474 843 472 753 478 799 b 449 931 471 874 464 904 b 211 990 404 1008 293 1028 b 125 896 174 972 143 935 b 71 699 97 833 85 765 b 40 381 51 594 39 488 b 53 175 42 313 35 242 b 165 10 71 111 108 43 b 371 -6 225 -25 304 -26 b 472 47 407 6 442 24 b 554 129 503 71 528 100 b 604 149 565 143 588 153 b 649 115 622 143 635 128 b 772 15 686 79 728 43 b 968 -12 828 -19 904 -28 z "},"X":{"ha":849,"x_min":0,"x_max":0,"o":"m 269 -6 b 335 33 292 7 319 14 b 372 128 346 47 368 113 b 426 310 393 188 410 249 b 499 83 451 235 463 154 b 557 14 513 57 532 31 b 625 -7 576 1 601 -6 b 733 13 661 -8 701 -4 b 786 60 754 24 774 40 b 804 143 800 85 807 115 b 746 311 799 203 774 260 b 606 508 706 382 656 447 b 772 711 657 579 722 639 b 825 847 799 753 824 799 b 583 963 831 983 674 1064 b 458 704 519 892 492 794 b 378 863 433 758 410 813 b 297 951 357 896 329 928 b 208 979 272 969 239 979 b 78 925 161 978 113 956 b 25 850 54 904 35 879 b 26 751 14 819 14 782 b 111 647 43 710 78 676 b 268 481 168 596 225 543 b 132 283 226 413 178 349 b 72 182 110 250 88 218 b 54 100 61 156 53 128 b 186 -21 60 42 129 -11 b 269 -6 214 -25 244 -19 z "},"Y":{"ha":846,"x_min":0,"x_max":0,"o":"m 581 14 b 639 103 608 35 626 69 b 661 179 649 128 654 154 b 796 742 704 367 732 560 b 835 864 810 782 828 821 b 828 949 840 892 839 922 b 776 1010 818 974 799 994 b 654 1042 742 1033 696 1046 b 550 985 614 1039 572 1018 b 494 853 522 946 506 899 b 439 599 488 819 450 632 b 386 538 432 576 408 540 b 335 589 358 533 340 563 b 343 743 325 640 339 692 b 328 908 347 799 351 858 b 40 897 272 1032 100 1019 b 21 792 24 865 19 828 b 43 606 24 729 39 668 b 61 454 46 556 44 503 b 156 333 78 406 113 361 b 338 283 208 299 275 286 b 306 100 318 225 297 163 b 358 17 310 68 331 35 b 475 -15 392 -6 435 -15 b 581 14 511 -15 551 -8 z "},"Z":{"ha":785,"x_min":0,"x_max":0,"o":"m 532 -12 b 690 14 558 -11 667 4 b 735 53 708 21 725 35 b 757 168 753 88 761 129 b 708 256 754 201 738 238 b 604 267 679 274 639 274 b 360 189 521 250 442 211 b 494 413 375 222 475 382 b 688 686 517 447 667 651 b 747 814 713 726 733 769 b 753 933 757 851 764 894 b 688 1000 742 965 719 989 b 508 1028 631 1021 568 1024 b 261 1026 426 1032 344 1032 b 150 1010 224 1024 186 1021 b 60 814 67 986 26 893 b 93 768 67 796 78 779 b 169 739 114 750 143 743 b 471 800 271 722 379 757 b 72 322 340 639 171 506 b 25 194 50 282 32 239 b 29 110 21 167 21 136 b 99 24 40 72 64 43 b 253 -10 144 -3 200 -6 b 532 -12 346 -14 439 -17 z "},"[":{"ha":610,"x_min":0,"x_max":0,"o":"m 493 -8 b 543 17 511 -6 529 4 b 576 174 582 54 594 124 b 514 235 568 201 542 225 b 333 233 457 254 393 238 b 326 788 308 417 306 603 b 467 789 372 790 419 783 b 519 979 553 801 569 908 b 242 1028 471 1049 325 1051 b 113 921 189 1013 135 972 b 50 546 63 804 54 672 b 131 114 44 399 64 243 b 201 25 149 81 171 49 b 288 -11 226 7 257 -3 b 493 -8 354 -28 425 -19 z "},"\\":{"ha":819,"x_min":0,"x_max":0,"o":"m 792 42 b 810 100 803 58 810 79 b 786 203 810 135 799 169 b 654 468 753 296 706 383 b 463 751 596 567 533 663 b 339 914 419 806 382 863 b 213 1031 301 957 263 1001 b 108 1065 182 1050 146 1065 b -24 965 44 1067 -21 1029 b -4 900 -25 942 -15 919 b 103 765 25 850 67 810 b 222 603 146 714 185 658 b 351 394 268 535 313 467 b 474 144 394 313 436 229 b 539 22 492 101 510 58 b 792 42 606 -60 733 -47 z "},"]":{"ha":611,"x_min":0,"x_max":0,"o":"m 325 -11 b 410 25 354 -3 385 7 b 481 114 440 49 463 81 b 563 536 546 240 565 393 b 499 921 558 665 550 801 b 372 1026 476 971 425 1011 b 219 1039 324 1042 271 1044 b 107 997 181 1035 138 1024 b 74 843 68 963 51 892 b 144 789 86 813 111 794 b 285 788 190 783 239 790 b 278 233 304 603 301 417 b 97 235 218 238 154 254 b 31 161 64 224 38 196 b 122 -10 14 86 47 3 b 325 -11 189 -19 260 -28 z "},"^":{"ha":596,"x_min":0,"x_max":0,"o":"m 546 513 b 561 615 561 544 564 582 b 521 774 557 669 538 721 b 447 965 501 839 485 907 b 394 1017 435 986 417 1006 b 264 1017 357 1036 303 1039 b 208 964 242 1004 224 985 b 163 886 190 939 176 913 b 150 861 160 883 151 864 b 51 685 114 804 76 747 b 31 569 36 649 25 608 b 75 500 36 542 51 517 b 188 476 107 479 151 465 b 260 546 219 488 243 517 b 313 663 279 583 296 622 b 372 494 326 604 336 542 b 546 513 413 439 515 450 z "},"_":{"ha":836,"x_min":0,"x_max":0,"o":"m 365 -200 b 611 -203 447 -197 529 -201 b 738 -193 654 -204 697 -206 b 840 -37 806 -171 861 -106 b 764 47 831 0 797 29 b 615 81 718 69 665 78 b 439 82 557 85 497 83 b 144 65 340 79 240 85 b 47 33 111 58 76 51 b -4 -107 7 8 -17 -62 b 39 -171 3 -132 18 -156 b 142 -207 67 -194 106 -204 b 365 -200 217 -214 290 -204 z "},"a":{"ha":908,"x_min":0,"x_max":0,"o":"m 301 -15 b 386 38 333 -8 367 10 b 406 111 401 58 406 86 b 394 203 406 142 401 172 b 479 208 422 207 451 210 b 551 200 504 208 528 204 b 529 107 542 169 531 139 b 544 50 528 88 533 67 b 581 15 553 36 567 25 b 743 -14 626 -14 689 -26 b 817 39 772 -8 804 11 b 865 267 832 72 861 229 b 860 660 876 397 885 531 b 767 885 844 739 815 819 b 631 978 735 929 682 958 b 269 981 518 1019 385 1017 b 119 861 208 961 154 915 b 38 550 61 771 42 657 b 53 171 33 424 36 296 b 82 69 57 136 64 100 b 171 -3 103 38 135 13 b 301 -15 211 -19 258 -25 z m 483 383 b 357 371 442 381 399 379 b 385 583 346 442 347 522 b 519 622 413 629 472 651 b 578 526 551 603 569 564 b 588 371 590 476 592 422 b 483 383 554 379 518 385 z "},"b":{"ha":860,"x_min":0,"x_max":0,"o":"m 317 -24 b 722 75 456 -19 604 3 b 821 175 763 100 800 133 b 815 374 851 233 849 317 b 690 474 788 419 740 456 b 754 550 717 493 739 521 b 781 690 775 593 782 643 b 735 838 778 742 761 793 b 601 967 701 889 657 938 b 410 1000 544 996 475 1003 b 185 947 333 996 251 985 b 99 858 149 926 118 894 b 43 657 64 799 50 726 b 82 88 28 467 44 274 b 104 6 85 71 93 18 b 317 -24 139 -26 269 -24 z m 332 626 b 317 732 308 656 303 697 b 521 697 360 839 518 811 b 332 626 524 594 397 547 z m 343 228 b 440 339 342 286 382 346 b 496 299 463 336 485 318 b 497 197 513 269 513 228 b 449 146 488 175 471 156 b 343 228 396 122 344 171 z "},"c":{"ha":846,"x_min":0,"x_max":0,"o":"m 556 -7 b 678 42 599 3 640 19 b 806 236 747 85 794 156 b 807 357 813 276 811 317 b 771 421 804 382 789 404 b 610 443 735 453 653 464 b 551 376 583 429 564 403 b 547 343 546 367 546 354 b 531 247 549 311 546 276 b 461 231 518 222 486 217 b 403 294 436 246 417 269 b 368 418 381 332 372 375 b 417 700 363 481 375 651 b 506 681 444 733 493 722 b 517 582 515 649 511 614 b 549 535 519 563 533 546 b 753 543 600 497 701 506 b 790 583 768 554 781 568 b 808 632 800 599 804 615 b 801 775 819 679 815 729 b 678 942 783 842 735 903 b 483 997 622 981 550 996 b 251 953 404 1000 321 989 b 97 793 186 918 129 860 b 28 424 43 679 22 549 b 81 185 31 343 46 258 b 150 85 99 149 122 114 b 272 10 183 50 226 24 b 556 -7 363 -18 464 -26 z "},"d":{"ha":864,"x_min":0,"x_max":0,"o":"m 465 -8 b 685 89 543 7 622 39 b 804 258 738 133 779 193 b 822 636 850 375 849 513 b 699 875 804 724 757 807 b 576 975 664 914 624 953 b 408 1014 524 1000 465 1011 b 190 976 335 1018 257 1007 b 96 901 154 960 119 935 b 56 776 71 865 61 819 b 42 597 46 717 43 657 b 53 286 40 493 46 390 b 72 81 57 218 60 149 b 94 26 75 61 81 42 b 217 -22 122 -7 172 -18 b 465 -8 299 -31 383 -26 z m 388 321 b 368 393 378 343 372 368 b 360 506 364 431 361 468 b 367 614 360 542 360 578 b 394 681 371 638 378 663 b 483 681 418 706 457 703 b 526 611 504 664 518 638 b 529 406 546 546 544 472 b 489 311 522 372 511 338 b 388 321 461 278 407 282 z "},"e":{"ha":822,"x_min":0,"x_max":0,"o":"m 700 26 b 768 75 726 38 751 53 b 799 169 789 101 799 136 b 654 313 799 253 736 329 b 499 254 633 307 519 260 b 407 258 469 246 435 243 b 328 381 364 281 340 333 b 461 381 372 378 417 378 b 542 393 489 382 517 383 b 582 422 557 399 572 408 b 576 546 604 458 603 511 b 510 572 563 565 533 569 b 325 572 486 574 350 572 b 369 682 333 611 347 650 b 422 729 383 701 401 718 b 497 739 444 740 472 743 b 597 699 532 731 564 711 b 707 696 632 688 672 683 b 757 739 728 703 744 721 b 790 844 778 769 788 807 b 785 914 793 868 792 892 b 742 974 778 938 761 958 b 628 1014 710 997 668 1008 b 439 1021 565 1024 501 1022 b 233 964 368 1018 292 1004 b 78 751 160 915 107 835 b 33 535 54 682 40 608 b 39 297 25 456 25 375 b 151 69 54 214 86 124 b 258 14 182 44 219 26 b 436 -17 315 -6 376 -12 b 700 26 525 -24 618 -8 z "},"f":{"ha":739,"x_min":0,"x_max":0,"o":"m 289 -11 b 347 32 313 -3 333 13 b 360 90 357 49 360 71 b 349 182 358 121 350 151 b 369 264 349 203 354 250 b 392 272 374 265 388 271 b 554 286 444 283 500 281 b 649 360 600 290 635 317 b 597 536 671 424 658 510 b 381 556 531 565 453 546 b 350 571 372 557 354 563 b 339 646 343 586 332 629 b 356 660 342 653 349 657 b 500 654 379 667 475 656 b 625 660 542 651 585 649 b 693 696 650 665 676 676 b 692 917 740 747 729 857 b 644 965 681 936 664 954 b 556 996 618 982 586 990 b 421 1004 511 1003 467 1006 b 192 972 344 1000 264 999 b 108 908 158 961 129 936 b 54 769 78 868 63 818 b 42 586 43 710 42 647 b 69 111 43 428 49 268 b 90 33 72 85 78 57 b 289 -11 124 -31 222 -37 z "},"g":{"ha":847,"x_min":0,"x_max":0,"o":"m 622 14 b 775 144 685 39 743 85 b 810 335 806 201 813 271 b 776 419 808 365 797 397 b 731 447 764 433 747 442 b 526 444 690 458 565 458 b 488 336 481 426 458 375 b 546 300 501 317 524 306 b 442 228 536 249 488 203 b 414 249 432 233 422 240 b 350 379 381 283 360 332 b 342 610 336 456 331 535 b 379 714 346 647 357 685 b 458 764 399 740 426 757 b 533 685 504 774 539 731 b 515 597 531 671 514 611 b 685 514 521 521 610 499 b 765 553 714 519 743 532 b 803 613 783 568 796 590 b 806 765 819 661 819 717 b 575 986 778 874 686 961 b 251 953 469 1010 349 1003 b 88 768 179 914 118 844 b 47 278 25 617 8 438 b 157 78 67 204 101 129 b 300 3 197 42 247 17 b 622 14 403 -28 522 -26 z "},"h":{"ha":1061,"x_min":0,"x_max":0,"o":"m 340 -15 b 450 40 381 -7 425 8 b 483 154 475 71 483 114 b 446 340 482 217 467 281 b 615 338 500 353 560 353 b 583 100 589 263 568 179 b 621 31 589 74 603 49 b 706 -10 644 10 675 -3 b 894 26 769 -25 842 -11 b 943 72 914 39 931 54 b 1000 206 971 111 988 158 b 1024 344 1014 250 1019 297 b 1025 496 1028 394 1028 446 b 990 790 1018 594 1013 694 b 908 972 975 856 957 926 b 650 957 836 1043 718 1032 b 604 822 619 921 606 869 b 621 639 601 761 608 699 b 439 628 563 624 499 617 b 456 839 454 696 463 768 b 428 933 453 872 446 906 b 243 1017 389 993 315 1026 b 144 964 206 1011 171 993 b 81 829 111 926 94 876 b 42 549 56 738 43 643 b 42 547 42 549 42 549 b 39 325 33 474 33 399 b 96 108 46 251 63 175 b 146 40 108 83 124 60 b 340 -15 197 -3 274 -26 z "},"i":{"ha":485,"x_min":0,"x_max":0,"o":"m 385 36 b 433 239 426 92 431 169 b 438 779 438 310 440 707 b 415 915 435 825 432 872 b 369 979 406 940 390 963 b 289 1011 346 996 318 1007 b 150 981 242 1018 190 1007 b 86 907 122 963 100 936 b 60 789 68 871 64 829 b 47 550 51 710 49 629 b 46 301 44 467 43 385 b 67 101 47 233 49 165 b 110 35 74 75 90 53 b 254 -19 149 1 203 -19 b 385 36 301 -19 356 -1 z "},"j":{"ha":863,"x_min":0,"x_max":0,"o":"m 482 0 b 801 307 635 38 758 157 b 828 576 826 394 829 486 b 811 832 826 661 825 747 b 769 960 804 876 794 922 b 558 994 732 1013 621 1014 b 494 957 535 986 513 975 b 464 908 481 944 471 926 b 449 818 453 879 451 849 b 490 433 443 765 488 488 b 479 342 492 403 490 371 b 368 294 460 289 397 249 b 329 447 339 339 358 403 b 107 482 286 510 178 515 b 54 442 88 474 68 458 b 18 358 36 418 24 388 b 60 131 3 283 19 197 b 124 61 76 104 97 79 b 482 0 224 -8 365 -28 z "},"k":{"ha":997,"x_min":0,"x_max":0,"o":"m 479 101 b 474 193 483 132 479 164 b 439 347 469 213 443 328 b 683 61 522 254 596 151 b 767 4 707 38 735 14 b 863 7 797 -6 832 -3 b 922 258 968 40 994 174 b 786 382 882 304 832 342 b 676 486 747 415 711 450 b 892 657 706 507 864 633 b 961 747 919 682 946 713 b 976 821 971 769 978 796 b 851 968 975 885 915 957 b 732 940 811 975 767 963 b 607 831 685 911 646 871 b 408 608 538 760 475 681 b 411 742 407 653 407 697 b 418 890 415 792 422 840 b 390 956 417 914 407 938 b 153 968 329 1024 218 1029 b 79 843 117 935 93 889 b 38 603 54 765 43 685 b 81 174 26 460 36 311 b 122 83 90 142 104 111 b 172 21 135 60 151 36 b 329 -28 218 -14 272 -31 b 479 101 406 -26 465 26 z "},"l":{"ha":708,"x_min":0,"x_max":0,"o":"m 567 -1 b 664 42 601 4 639 17 b 679 250 711 89 714 192 b 593 299 661 278 625 294 b 449 294 544 304 496 289 b 397 318 429 296 410 304 b 378 407 378 342 376 376 b 393 632 379 482 385 557 b 410 840 401 701 415 771 b 360 967 407 886 392 935 b 124 956 296 1032 189 1019 b 74 861 99 931 85 894 b 46 704 58 810 51 757 b 38 460 38 624 35 542 b 75 186 39 368 49 275 b 167 50 90 133 121 82 b 368 -4 224 10 299 -3 b 567 -1 435 -6 501 -11 z "},"m":{"ha":1179,"x_min":0,"x_max":0,"o":"m 365 -7 b 454 82 407 8 438 39 b 461 263 475 138 471 203 b 390 618 453 314 390 567 b 453 544 401 608 444 556 b 549 471 479 514 511 483 b 622 472 572 464 599 463 b 728 550 644 479 711 533 b 789 618 736 558 779 611 b 731 319 790 572 740 364 b 711 168 719 269 710 218 b 732 69 711 135 717 100 b 974 0 774 -18 885 -40 b 1060 94 1013 18 1043 56 b 1113 289 1088 156 1100 224 b 1144 607 1135 393 1146 500 b 1135 808 1144 674 1150 743 b 1038 968 1119 868 1088 931 b 878 1008 993 1001 932 1013 b 763 972 838 1004 797 993 b 643 875 719 944 681 911 b 599 842 631 863 617 847 b 547 861 581 838 560 847 b 469 939 524 889 499 917 b 217 1001 403 994 301 1022 b 128 956 183 994 151 978 b 46 810 86 918 60 864 b 35 608 31 744 36 676 b 67 292 33 503 46 396 b 119 93 79 224 92 156 b 197 4 136 57 163 24 b 365 -7 247 -22 313 -28 z "},"n":{"ha":1060,"x_min":0,"x_max":0,"o":"m 358 31 b 406 190 393 74 401 135 b 411 363 410 247 411 304 b 613 89 468 264 529 165 b 738 24 647 58 690 31 b 847 53 775 19 817 32 b 951 181 893 85 926 132 b 1019 456 993 265 1010 361 b 1022 757 1031 556 1032 657 b 976 921 1015 814 1004 871 b 903 997 960 951 935 981 b 769 1021 863 1018 814 1026 b 671 968 729 1017 696 999 b 617 825 638 929 619 876 b 651 557 610 736 631 644 b 390 936 564 683 494 825 b 367 958 388 940 369 956 b 251 1014 340 992 294 1013 b 79 900 176 1015 107 969 b 60 792 67 865 64 828 b 47 553 51 713 49 633 b 46 301 44 469 43 385 b 65 101 47 233 49 165 b 121 22 74 69 96 42 b 236 -19 154 -3 196 -19 b 358 31 281 -21 331 -3 z "},"o":{"ha":919,"x_min":0,"x_max":0,"o":"m 579 15 b 754 124 644 36 706 75 b 876 332 810 181 853 254 b 861 697 913 451 907 582 b 758 858 838 757 801 813 b 579 971 708 910 646 950 b 367 979 510 993 438 996 b 167 863 292 960 221 918 b 36 628 104 799 58 714 b 33 376 17 546 17 458 b 163 128 51 285 97 194 b 340 15 211 76 274 36 b 579 15 418 -10 501 -10 z m 296 489 b 499 731 260 622 363 754 b 600 672 538 724 574 701 b 564 388 676 586 658 454 b 296 489 467 318 329 374 z "},"p":{"ha":863,"x_min":0,"x_max":0,"o":"m 322 -19 b 393 25 349 -12 376 3 b 418 117 413 50 419 85 b 379 281 413 172 396 226 b 557 261 436 261 497 254 b 701 303 607 267 656 282 b 808 425 750 326 788 375 b 839 678 842 503 850 594 b 751 881 828 751 801 826 b 514 1000 692 946 601 989 b 267 983 432 1011 344 1010 b 150 918 225 969 182 950 b 72 769 111 878 88 824 b 36 457 42 669 33 563 b 54 203 39 372 39 286 b 118 39 65 146 85 88 b 168 -4 131 21 149 7 b 322 -19 214 -28 272 -33 z m 390 572 b 389 689 379 608 378 651 b 446 767 397 719 418 751 b 494 774 460 775 479 778 b 549 717 519 765 538 740 b 549 550 571 667 574 600 b 497 496 538 528 521 506 b 390 572 449 474 406 521 z "},"q":{"ha":964,"x_min":0,"x_max":0,"o":"m 819 -151 b 915 -106 854 -149 892 -132 b 928 90 960 -53 965 33 b 826 218 899 136 861 176 b 861 697 910 361 924 542 b 758 858 838 757 801 813 b 579 971 708 910 646 950 b 367 979 510 993 438 996 b 167 863 292 960 221 918 b 36 628 104 799 58 714 b 33 376 17 546 17 458 b 163 128 51 285 97 194 b 340 15 211 76 274 36 b 646 43 442 -17 553 -7 b 704 -78 668 4 683 -37 b 742 -131 714 -97 725 -117 b 819 -151 763 -147 793 -153 z m 296 489 b 499 731 260 622 363 754 b 600 672 538 724 574 701 b 564 388 676 586 658 454 b 296 489 467 318 329 374 z "},"r":{"ha":875,"x_min":0,"x_max":0,"o":"m 322 -19 b 392 22 349 -12 375 1 b 418 111 411 46 419 81 b 421 215 417 131 413 197 b 481 231 431 236 460 239 b 558 158 514 218 543 190 b 585 43 574 122 571 81 b 624 -1 590 25 606 8 b 750 -14 661 -21 711 -29 b 803 31 772 -6 790 11 b 825 110 817 54 824 82 b 808 225 828 149 824 189 b 736 324 794 264 767 297 b 814 438 772 353 797 394 b 839 678 843 513 850 599 b 751 881 828 751 801 826 b 514 1000 692 946 601 989 b 267 983 432 1011 344 1010 b 150 918 225 969 182 950 b 72 769 111 878 88 824 b 36 457 42 669 33 563 b 54 203 39 372 39 286 b 118 39 65 146 85 88 b 168 -4 131 21 149 7 b 322 -19 214 -28 272 -33 z m 390 572 b 389 689 379 608 378 651 b 446 767 397 719 418 751 b 494 774 460 775 479 778 b 549 717 519 765 538 740 b 549 550 571 667 574 600 b 497 496 538 528 521 506 b 390 572 449 474 406 521 z "},"s":{"ha":814,"x_min":0,"x_max":0,"o":"m 456 -22 b 560 -4 490 -21 526 -15 b 732 131 629 18 694 68 b 769 296 761 179 775 240 b 724 422 765 340 750 386 b 628 500 699 456 664 481 b 460 564 575 528 517 544 b 344 644 424 578 350 607 b 417 688 339 678 383 689 b 478 671 438 686 458 681 b 621 628 522 650 571 631 b 710 647 651 626 683 632 b 776 860 776 686 806 788 b 700 943 763 894 732 922 b 522 1004 647 978 585 996 b 331 1001 458 1013 394 1011 b 115 890 251 989 171 950 b 32 725 72 846 42 786 b 86 526 21 653 40 583 b 221 429 121 483 169 450 b 392 378 276 407 336 399 b 458 335 417 368 443 357 b 454 283 469 318 471 294 b 329 286 429 268 358 278 b 179 339 279 301 232 328 b 36 163 85 357 19 257 b 86 71 42 128 61 94 b 247 -3 131 32 190 10 b 456 -22 315 -18 386 -22 z "},"t":{"ha":806,"x_min":0,"x_max":0,"o":"m 431 -24 b 572 128 504 -1 554 54 b 586 307 585 186 586 247 b 560 660 588 424 575 542 b 675 665 599 656 638 656 b 744 700 700 671 725 683 b 782 914 794 747 814 853 b 678 993 763 953 719 979 b 481 1024 614 1014 546 1017 b 243 1022 401 1032 321 1033 b 81 972 188 1015 129 1000 b 17 890 50 956 26 924 b 61 682 0 831 13 721 b 200 646 99 653 153 643 b 186 471 197 588 193 529 b 163 211 178 385 167 297 b 168 113 161 178 160 144 b 431 -24 197 -1 319 -57 z "},"u":{"ha":900,"x_min":0,"x_max":0,"o":"m 511 -17 b 731 104 600 -8 679 36 b 803 232 760 143 785 186 b 867 719 860 386 881 557 b 818 949 863 757 833 915 b 746 1003 806 976 775 996 b 601 983 699 1014 644 1006 b 551 947 582 975 564 963 b 531 876 536 928 528 900 b 560 765 533 838 550 801 b 579 463 586 668 603 561 b 518 364 571 425 551 383 b 386 404 472 339 413 361 b 357 489 369 431 361 460 b 360 631 349 536 351 585 b 403 828 372 697 394 761 b 393 942 408 865 411 908 b 299 1004 375 975 335 997 b 64 875 200 1025 90 971 b 44 715 50 822 47 768 b 39 421 38 617 35 518 b 115 133 44 321 61 217 b 278 6 151 75 211 25 b 511 -17 353 -17 433 -25 z "},"v":{"ha":965,"x_min":0,"x_max":0,"o":"m 508 -21 b 660 56 564 -15 619 15 b 806 292 725 121 769 206 b 896 539 840 372 871 454 b 946 763 918 611 938 686 b 935 899 950 807 951 856 b 882 968 925 925 906 951 b 815 990 863 982 839 989 b 711 967 779 993 743 982 b 606 707 644 936 613 781 b 589 500 599 638 599 568 b 504 339 582 453 547 358 b 431 415 465 322 443 375 b 401 596 414 474 406 535 b 383 872 396 688 399 781 b 335 969 378 908 361 944 b 225 1010 307 997 264 1011 b 110 967 185 1008 144 989 b 61 921 92 956 74 940 b 38 865 50 904 43 885 b 44 544 14 761 24 649 b 164 207 67 426 104 310 b 292 49 199 147 240 92 b 508 -21 350 -1 432 -28 z "},"w":{"ha":1179,"x_min":0,"x_max":0,"o":"m 963 -12 b 1050 32 994 -6 1026 10 b 1133 179 1092 69 1119 125 b 1144 383 1150 244 1144 315 b 1113 700 1146 489 1135 596 b 1060 896 1100 767 1088 835 b 972 989 1042 935 1011 972 b 736 931 892 1026 781 1007 b 713 843 722 904 715 874 b 731 671 707 786 717 728 b 789 371 740 626 789 417 b 731 436 779 379 739 428 b 638 511 703 465 671 490 b 557 521 614 525 583 526 b 499 490 535 515 517 503 b 428 413 471 468 449 440 b 390 372 415 399 406 383 b 458 708 390 422 447 658 b 468 843 467 753 472 799 b 443 931 465 874 458 904 b 206 990 399 1008 288 1028 b 119 896 168 972 138 935 b 65 699 92 833 79 765 b 35 381 46 594 33 488 b 47 175 36 313 29 242 b 160 10 65 111 103 43 b 365 -6 219 -25 299 -26 b 467 47 401 6 436 24 b 549 129 497 71 522 100 b 599 149 560 143 582 153 b 643 115 617 143 629 128 b 767 15 681 79 722 43 b 963 -12 822 -19 899 -28 z "},"x":{"ha":846,"x_min":0,"x_max":0,"o":"m 269 -6 b 335 33 292 7 319 14 b 372 128 346 47 368 113 b 426 310 393 188 410 249 b 499 83 451 235 463 154 b 557 14 513 57 532 31 b 625 -7 576 1 601 -6 b 733 13 661 -8 701 -4 b 786 60 754 24 774 40 b 804 143 800 85 807 115 b 746 311 799 203 774 260 b 606 508 706 382 656 447 b 772 711 657 579 722 639 b 825 847 799 753 824 799 b 583 963 831 983 674 1064 b 458 704 519 892 492 794 b 378 863 433 758 410 813 b 297 951 357 896 329 928 b 208 979 272 969 239 979 b 78 925 161 978 113 956 b 25 850 54 904 35 879 b 26 751 14 819 14 782 b 111 647 43 710 78 676 b 268 481 168 596 225 543 b 132 283 226 413 178 349 b 72 182 110 250 88 218 b 54 100 61 156 53 128 b 186 -21 60 42 129 -11 b 269 -6 214 -25 244 -19 z "},"y":{"ha":847,"x_min":0,"x_max":0,"o":"m 581 14 b 639 103 608 35 626 69 b 661 179 649 128 654 154 b 796 742 704 367 732 560 b 835 864 810 782 828 821 b 828 949 840 892 839 922 b 776 1010 818 974 799 994 b 654 1042 742 1033 696 1046 b 550 985 614 1039 572 1018 b 494 853 522 946 506 899 b 439 599 488 819 450 632 b 386 538 432 576 408 540 b 335 589 358 533 340 563 b 343 743 325 640 339 692 b 328 908 347 799 351 858 b 40 897 272 1032 100 1019 b 21 792 24 865 19 828 b 43 606 24 729 39 668 b 61 454 46 556 44 503 b 156 333 78 406 113 361 b 338 283 208 299 275 286 b 306 100 318 225 297 163 b 358 17 310 68 331 35 b 475 -15 392 -6 435 -15 b 581 14 511 -15 551 -8 z "},"z":{"ha":782,"x_min":0,"x_max":0,"o":"m 531 -12 b 689 14 557 -11 665 4 b 733 53 707 21 724 35 b 756 168 751 88 760 129 b 707 256 753 201 736 238 b 603 267 678 274 638 274 b 358 189 519 250 440 211 b 493 413 374 222 474 382 b 686 686 515 447 665 651 b 746 814 711 726 732 769 b 751 933 756 851 763 894 b 686 1000 740 965 718 989 b 507 1028 629 1021 567 1024 b 260 1026 425 1032 343 1032 b 149 1010 222 1024 185 1021 b 58 814 65 986 25 893 b 92 768 65 796 76 779 b 168 739 113 750 142 743 b 469 800 269 722 378 757 b 71 322 339 639 169 506 b 24 194 49 282 31 239 b 28 110 19 167 19 136 b 97 24 39 72 63 43 b 251 -10 143 -3 199 -6 b 531 -12 344 -14 438 -17 z "},"{":{"ha":671,"x_min":0,"x_max":0,"o":"m 485 -19 b 568 -6 513 -17 542 -15 b 636 164 629 18 654 101 b 585 225 628 190 610 213 b 492 242 557 240 522 243 b 392 232 458 240 425 235 b 385 374 386 279 394 328 b 358 435 381 396 372 417 b 299 479 342 453 321 468 b 292 525 281 488 276 511 b 343 557 297 531 336 553 b 388 640 368 576 382 608 b 394 786 396 688 389 738 b 529 786 439 789 485 782 b 576 993 631 796 653 925 b 518 1024 560 1008 539 1017 b 394 1039 479 1035 436 1039 b 286 1018 358 1038 319 1033 b 186 928 244 1000 206 968 b 118 618 139 833 126 724 b 24 539 115 586 53 554 b 13 450 -8 522 -14 475 b 76 418 31 433 57 432 b 121 347 92 407 118 365 b 181 131 131 272 149 199 b 281 11 203 83 235 36 b 485 -19 340 -22 417 -24 z "},"}":{"ha":669,"x_min":0,"x_max":0,"o":"m 388 11 b 492 136 436 36 469 86 b 550 349 522 203 540 275 b 596 419 553 368 579 408 b 663 456 617 433 646 436 b 658 529 679 476 678 510 b 629 547 651 538 640 542 b 551 618 606 561 554 590 b 485 926 544 724 531 832 b 383 1018 464 968 425 1000 b 244 1038 340 1038 292 1040 b 122 1013 203 1036 160 1031 b 51 861 68 986 38 922 b 136 786 63 818 93 792 b 275 786 182 781 229 789 b 282 639 281 738 274 688 b 331 556 288 607 304 572 b 379 525 338 550 374 531 b 371 479 393 511 389 488 b 304 424 346 467 321 449 b 281 343 289 401 282 372 b 278 232 279 307 282 269 b 93 229 217 238 150 254 b 35 164 65 218 43 192 b 90 0 18 110 40 28 b 179 -19 117 -15 150 -17 b 388 11 250 -24 326 -22 z "},"~":{"ha":851,"x_min":0,"x_max":0,"o":"m 643 171 b 743 261 685 189 718 225 b 813 417 775 308 800 361 b 810 526 821 451 824 492 b 749 594 797 554 775 579 b 522 518 665 646 557 608 b 513 494 519 510 517 503 b 494 476 510 486 503 475 b 486 483 492 478 489 481 b 435 546 467 503 453 526 b 325 632 404 582 367 613 b 243 651 300 644 271 653 b 169 625 217 651 190 642 b 57 474 119 588 79 532 b 43 288 33 415 25 347 b 214 213 67 215 149 174 b 258 251 232 222 246 238 b 349 354 288 286 313 326 b 389 365 360 363 376 369 b 425 321 407 358 417 339 b 469 221 439 288 449 251 b 563 160 492 192 526 168 b 643 171 589 156 618 160 z "}," ":{"ha":417,"x_min":0,"x_max":0,"o":""},"¢":{"ha":701,"x_min":0,"x_max":0,"o":"m 390 -32 b 439 -12 408 -29 426 -25 b 456 25 449 -3 454 11 b 457 119 460 56 458 88 b 588 189 504 132 551 156 b 665 350 631 231 661 292 b 546 510 672 431 625 515 b 428 447 501 508 463 475 b 318 394 403 429 347 383 b 282 492 286 404 281 458 b 351 594 285 536 307 592 b 456 558 371 596 438 565 b 526 553 478 549 503 547 b 639 733 600 571 654 658 b 600 799 633 758 621 782 b 464 867 563 833 514 856 b 444 967 465 900 465 939 b 372 1001 429 988 400 1000 b 293 978 344 1001 311 999 b 275 854 275 957 275 881 b 157 785 232 839 190 817 b 72 658 121 750 92 706 b 35 469 46 600 35 533 b 99 239 35 389 56 306 b 194 149 122 203 156 169 b 282 117 222 135 251 124 b 271 54 278 96 274 75 b 281 1 268 38 269 17 b 390 -32 299 -22 361 -35 z "},"£":{"ha":876,"x_min":0,"x_max":0,"o":"m 406 0 b 622 10 476 7 550 14 b 721 0 654 7 688 1 b 832 204 817 -4 853 110 b 779 297 825 239 808 276 b 686 328 753 315 719 325 b 551 338 663 329 572 325 b 519 394 539 344 524 382 b 588 393 542 393 565 392 b 649 408 608 393 631 396 b 682 496 675 425 683 464 b 671 558 682 517 681 539 b 496 600 647 604 547 603 b 482 743 488 629 471 715 b 551 760 494 771 528 779 b 592 710 568 746 578 725 b 639 676 606 696 621 682 b 722 690 667 669 697 676 b 814 797 763 714 799 753 b 825 860 821 817 826 839 b 775 976 821 901 803 944 b 714 1019 758 994 735 1007 b 533 1072 658 1049 596 1071 b 368 1050 478 1072 421 1069 b 246 956 321 1031 276 996 b 171 807 213 911 186 860 b 153 596 151 739 142 665 b 76 576 126 597 93 596 b 61 547 68 568 64 557 b 65 442 51 513 53 475 b 106 394 74 422 86 403 b 146 386 118 389 132 388 b 213 386 168 385 190 385 b 214 317 218 364 226 336 b 169 283 204 301 186 290 b 104 251 146 275 122 267 b 36 147 71 226 43 188 b 64 39 31 110 40 68 b 157 -7 86 13 124 -1 b 406 0 239 -19 322 -10 z "},"¤":{"ha":1006,"x_min":0,"x_max":0,"o":"m 285 -8 b 358 76 313 17 335 47 b 644 103 453 58 557 64 b 697 33 663 79 679 56 b 760 -21 714 11 733 -11 b 858 -8 790 -33 832 -28 b 925 85 890 14 918 47 b 910 165 931 113 922 142 b 826 258 889 203 857 232 b 821 264 824 261 819 263 b 881 561 871 353 889 461 b 853 693 878 606 869 651 b 965 822 894 732 942 769 b 972 876 972 839 975 858 b 874 990 965 919 915 979 b 817 985 856 994 835 992 b 758 942 794 976 775 960 b 699 856 736 915 717 886 b 582 896 663 875 622 890 b 333 879 500 910 413 904 b 232 999 303 921 274 967 b 174 1019 215 1011 194 1021 b 97 986 146 1019 119 1004 b 71 825 49 946 33 874 b 140 753 92 799 115 776 b 51 532 90 692 58 611 b 67 346 47 469 51 406 b 151 183 83 286 111 229 b 97 110 131 161 111 136 b 85 47 86 90 81 68 b 214 -37 93 -4 161 -37 b 285 -8 240 -37 267 -26 z m 511 408 b 438 488 478 424 451 454 b 501 710 407 564 429 671 b 576 719 524 722 551 726 b 650 658 607 711 633 686 b 664 492 679 611 683 544 b 511 408 640 426 575 381 z "},"¥":{"ha":801,"x_min":0,"x_max":0,"o":"m 535 54 b 564 182 554 93 563 139 b 636 181 588 178 613 174 b 667 203 649 183 660 192 b 661 292 682 229 682 269 b 556 333 635 319 593 328 b 557 369 556 344 556 357 b 689 385 593 365 668 354 b 672 499 715 421 713 476 b 596 517 649 511 622 514 b 729 749 633 597 686 671 b 771 899 753 794 774 846 b 732 988 769 931 756 965 b 639 1025 707 1010 672 1021 b 561 1003 613 1028 582 1019 b 486 888 525 974 503 931 b 418 703 461 828 438 765 b 354 872 400 760 381 818 b 276 986 335 914 311 957 b 154 1010 244 1013 194 1021 b 32 825 76 990 19 904 b 107 667 42 768 72 714 b 225 503 147 614 199 565 b 126 474 192 500 154 494 b 144 357 88 443 97 371 b 247 360 176 346 213 354 b 244 328 246 349 244 338 b 153 299 213 324 176 319 b 157 190 119 269 119 215 b 229 181 176 178 206 178 b 251 63 228 140 232 97 b 326 -3 267 33 296 10 b 535 54 400 -32 500 -17 z "},"­":{"ha":0,"x_min":0,"x_max":0,"o":""},"±":{"ha":825,"x_min":0,"x_max":0,"o":"m 519 361 b 549 489 546 396 550 446 b 676 494 590 489 635 488 b 767 544 710 501 744 518 b 753 725 806 596 797 681 b 668 764 731 746 699 758 b 539 771 625 772 582 772 b 540 889 543 810 547 850 b 500 968 536 918 522 947 b 361 982 467 1000 403 1001 b 294 894 329 965 303 931 b 285 771 283 856 283 813 b 175 771 247 772 211 774 b 60 718 133 768 86 751 b 40 594 35 685 32 635 b 75 532 46 571 57 547 b 151 506 96 515 124 508 b 278 503 193 500 236 500 b 299 371 276 458 275 410 b 343 329 308 353 325 338 b 519 361 397 304 483 314 z m 228 -24 b 417 -12 290 -22 353 -14 b 589 -18 474 -11 532 -17 b 693 -4 624 -18 661 -18 b 754 47 717 7 739 25 b 699 238 800 113 771 201 b 589 267 665 254 626 263 b 433 268 538 271 485 269 b 233 260 367 267 299 268 b 115 231 193 256 151 247 b 71 186 96 221 79 204 b 53 85 56 154 47 118 b 110 -1 58 49 81 17 b 228 -24 144 -21 188 -25 z "},"×":{"ha":768,"x_min":0,"x_max":0,"o":"m 290 122 b 383 222 325 151 354 188 b 460 133 407 192 429 158 b 547 100 485 115 515 100 b 690 217 607 99 675 158 b 674 306 697 246 688 278 b 585 418 653 349 617 383 b 676 501 614 447 644 474 b 728 569 697 521 718 543 b 725 658 738 597 736 631 b 657 735 713 689 686 717 b 553 736 628 753 585 750 b 479 681 525 724 501 701 b 406 599 453 654 429 626 b 275 746 358 644 324 701 b 222 776 260 760 242 772 b 47 668 154 793 74 732 b 63 549 31 629 36 582 b 215 418 104 496 168 465 b 63 256 160 369 96 322 b 49 190 53 236 47 213 b 75 139 51 171 61 153 b 199 83 107 106 154 83 b 290 122 232 82 265 100 z "},"÷":{"ha":761,"x_min":0,"x_max":0,"o":"m 456 617 b 471 746 485 644 490 710 b 403 790 458 769 428 781 b 279 769 371 803 304 792 b 236 661 250 744 232 700 b 279 597 240 636 257 611 b 346 583 299 586 322 585 b 456 617 383 583 428 590 z m 196 256 b 385 267 258 257 321 265 b 557 261 442 268 500 263 b 661 275 592 261 629 261 b 722 326 685 286 707 304 b 667 517 768 392 739 481 b 557 546 633 533 594 542 b 400 547 506 550 453 549 b 201 539 335 544 267 547 b 83 510 161 535 119 526 b 38 465 64 500 47 483 b 21 364 24 433 15 397 b 78 278 26 328 49 296 b 196 256 113 258 156 254 z m 447 39 b 463 168 476 67 482 132 b 394 213 450 192 421 203 b 271 192 363 225 296 214 b 229 83 242 167 224 122 b 271 19 232 58 249 33 b 338 6 290 8 315 7 b 447 39 375 6 419 13 z "},"‘":{"ha":297,"x_min":0,"x_max":0,"o":"m 199 651 b 233 693 214 660 226 676 b 256 768 244 717 251 742 b 264 896 261 810 267 853 b 250 961 261 918 258 942 b 97 1001 229 1007 147 1008 b 44 986 79 1000 58 999 b 35 961 38 981 35 969 b 42 808 33 940 42 828 b 47 675 43 788 42 694 b 115 640 53 653 93 642 b 199 651 143 639 174 639 z "},"’":{"ha":297,"x_min":0,"x_max":0,"o":"m 199 651 b 233 693 214 660 226 676 b 256 768 244 717 251 742 b 264 896 261 810 267 853 b 250 961 261 918 258 942 b 97 1001 229 1007 147 1008 b 44 986 79 1000 58 999 b 35 961 38 981 35 969 b 42 808 33 940 42 828 b 47 675 43 788 42 694 b 115 640 53 653 93 642 b 199 651 143 639 174 639 z "},"“":{"ha":579,"x_min":0,"x_max":0,"o":"m 201 642 b 238 690 219 653 229 672 b 263 814 254 729 258 772 b 250 950 268 858 268 908 b 97 990 229 996 147 997 b 44 975 79 988 58 986 b 35 949 38 968 35 958 b 42 797 33 929 42 817 b 47 663 43 776 42 682 b 115 629 53 642 93 631 b 201 642 144 628 176 626 z m 479 639 b 514 681 496 647 507 664 b 536 756 525 704 533 729 b 544 883 543 799 549 842 b 531 950 543 906 539 929 b 378 990 511 996 428 996 b 326 974 360 988 339 986 b 315 949 319 968 317 958 b 324 794 315 929 322 815 b 328 663 324 775 322 682 b 396 629 335 640 374 631 b 479 639 424 626 454 626 z "},"”":{"ha":579,"x_min":0,"x_max":0,"o":"m 201 642 b 238 690 219 653 229 672 b 263 814 254 729 258 772 b 250 950 268 858 268 908 b 97 990 229 996 147 997 b 44 975 79 988 58 986 b 35 949 38 968 35 958 b 42 797 33 929 42 817 b 47 663 43 776 42 682 b 115 629 53 642 93 631 b 201 642 144 628 176 626 z m 479 639 b 514 681 496 647 507 664 b 536 756 525 704 533 729 b 544 883 543 799 549 842 b 531 950 543 906 539 929 b 378 990 511 996 428 996 b 326 974 360 988 339 986 b 315 949 319 968 317 958 b 324 794 315 929 322 815 b 328 663 324 775 322 682 b 396 629 335 640 374 631 b 479 639 424 626 454 626 z "},"€":{"ha":788,"x_min":0,"x_max":0,"o":"m 478 -12 b 618 43 528 -8 579 11 b 728 219 672 86 713 153 b 724 313 735 250 733 283 b 631 404 710 356 674 392 b 574 410 613 410 592 411 b 485 381 542 408 508 401 b 454 432 483 400 472 422 b 403 443 439 440 421 442 b 403 472 403 453 403 463 b 486 489 431 474 464 472 b 504 515 494 496 501 506 b 483 611 515 543 506 592 b 399 622 469 622 417 622 b 410 722 397 656 400 690 b 425 753 414 733 418 743 b 478 771 438 769 463 786 b 511 688 489 760 507 703 b 539 651 517 674 526 660 b 604 632 557 638 581 632 b 717 676 644 631 692 646 b 701 919 767 739 750 857 b 642 972 685 940 664 958 b 396 1008 571 1014 475 1031 b 260 919 344 993 293 963 b 169 626 197 839 171 729 b 104 631 147 628 126 631 b 57 619 89 631 71 628 b 29 531 33 603 21 558 b 65 496 35 514 47 501 b 165 493 97 488 132 492 b 164 442 165 476 164 458 b 75 443 150 442 89 446 b 32 408 57 439 40 425 b 47 317 21 382 25 335 b 78 304 56 310 67 307 b 153 303 103 300 128 301 b 157 218 153 274 153 246 b 478 -12 178 69 329 -29 z m 379 264 b 369 314 372 279 369 297 b 444 315 394 313 419 313 b 399 247 436 294 421 250 b 379 264 390 247 382 256 z "},"™":{"ha":865,"x_min":0,"x_max":0,"o":"m 818 635 b 826 669 824 644 826 657 b 822 960 831 708 825 919 b 817 994 822 971 821 983 b 697 1025 801 1039 732 1056 b 603 868 674 1004 617 896 b 529 1007 585 917 565 969 b 451 1044 508 1028 479 1040 b 365 1054 422 1050 394 1051 b 196 1058 308 1058 253 1060 b 94 1050 163 1058 128 1057 b 92 885 -1 1031 -6 901 b 142 885 108 882 125 883 b 158 632 135 822 113 675 b 283 615 186 607 250 600 b 314 646 296 622 307 633 b 331 714 325 667 329 690 b 317 886 335 771 324 829 b 368 882 335 886 351 886 b 376 632 363 825 339 675 b 478 643 406 597 458 603 b 489 738 492 672 489 707 b 536 665 501 713 517 686 b 588 636 550 651 568 639 b 646 658 608 633 631 644 b 693 725 665 676 679 701 b 726 617 696 699 706 632 b 818 635 756 596 800 604 z "},"−":{"ha":781,"x_min":0,"x_max":0,"o":"m 206 256 b 394 267 268 257 331 265 b 567 261 451 268 510 263 b 671 275 601 261 639 261 b 732 326 694 286 717 304 b 676 517 778 392 749 481 b 567 546 643 533 604 542 b 410 547 515 550 463 549 b 211 539 344 544 276 547 b 93 510 171 535 129 526 b 47 465 74 500 57 483 b 31 364 33 433 25 397 b 88 278 36 328 58 296 b 206 256 122 258 165 254 z "},"|":{"ha":528,"x_min":0,"x_max":0,"o":"m 464 -64 b 475 106 483 -11 479 50 b 439 724 457 311 425 518 b 454 907 442 785 453 846 b 435 1031 456 949 450 992 b 342 1099 421 1067 379 1089 b 207 1097 297 1110 250 1110 b 128 1054 178 1090 147 1076 b 100 999 114 1039 104 1019 b 71 725 83 908 76 817 b 57 372 63 608 58 490 b 79 10 57 251 57 129 b 103 -71 85 -18 90 -46 b 175 -151 118 -103 144 -132 b 464 -64 281 -215 422 -179 z "},"`":{"ha":344,"x_min":0,"x_max":0,"o":"m 240 693 b 318 778 278 699 317 740 b 296 842 319 800 308 822 b 256 903 282 861 267 881 b 200 1004 236 936 225 974 b 138 1044 185 1024 161 1039 b 26 936 75 1058 26 1000 b 49 850 26 906 36 876 b 240 693 83 781 164 681 z "},"":{"ha":6438,"x_min":0,"x_max":0,"o":"m 188 361 b 204 361 194 361 199 361 b 500 428 306 368 404 397 b 553 478 532 439 578 454 b 519 500 543 489 531 494 b 404 550 482 521 444 536 b 240 582 353 564 299 576 b 124 574 204 588 161 588 b 74 538 106 567 86 554 b 57 492 64 525 57 508 b 188 361 50 417 114 361 z m 563 579 b 596 572 575 572 590 561 b 585 632 603 586 589 618 b 519 753 568 676 550 718 b 342 879 474 810 413 864 b 267 872 317 883 289 883 b 228 733 222 850 208 783 b 285 671 239 708 258 686 b 563 579 371 626 475 626 z m 315 138 b 415 163 350 136 383 146 b 572 282 442 176 551 261 b 588 301 579 286 589 294 b 525 325 579 319 542 322 b 310 313 454 338 376 338 b 228 243 274 301 239 275 b 315 138 211 188 257 139 z m 878 0 b 1085 -18 946 -15 1015 -18 b 1188 -1 1121 -18 1157 -12 b 1361 133 1258 22 1322 71 b 1399 297 1389 182 1404 243 b 1351 424 1393 342 1378 386 b 1258 500 1326 456 1292 482 b 1088 564 1203 528 1147 544 b 974 644 1053 578 981 607 b 1047 688 968 676 1014 689 b 1107 671 1068 686 1088 681 b 1250 628 1151 650 1199 629 b 1338 646 1279 626 1311 631 b 1404 857 1404 686 1432 788 b 1328 942 1390 892 1361 921 b 1151 1003 1276 975 1214 993 b 960 999 1088 1010 1025 1008 b 746 889 882 986 803 949 b 664 725 706 844 672 785 b 717 526 653 653 672 583 b 850 429 751 485 800 450 b 1021 379 907 408 967 399 b 1088 336 1047 371 1072 360 b 1083 285 1099 319 1100 296 b 958 286 1058 269 988 278 b 810 339 910 301 861 328 b 668 164 715 360 651 260 b 717 74 672 131 693 97 b 878 0 761 33 821 13 z m 1779 19 b 2018 19 1857 -7 1942 -7 b 2192 126 2083 38 2142 78 b 2314 335 2246 182 2289 257 b 2299 697 2349 451 2343 582 b 2196 856 2275 756 2238 811 b 2018 968 2146 907 2083 949 b 1806 975 1949 992 1876 993 b 1607 860 1732 958 1663 917 b 1478 628 1544 797 1500 714 b 1475 378 1457 544 1457 460 b 1604 131 1493 286 1538 197 b 1779 19 1651 79 1715 38 z m 2001 388 b 1736 490 1906 319 1768 375 b 1936 731 1699 622 1803 753 b 2038 671 1976 725 2011 701 b 2001 388 2114 588 2097 454 z m 2460 8 b 2671 -19 2493 -25 2624 -19 b 3074 78 2810 -17 2957 7 b 3172 176 3115 101 3151 136 b 3167 375 3203 235 3200 319 b 3042 475 3140 421 3092 456 b 3107 550 3067 493 3090 521 b 3133 690 3126 593 3135 642 b 3088 836 3129 740 3114 792 b 2953 965 3053 886 3010 935 b 2763 997 2899 993 2829 1000 b 2540 944 2688 993 2606 982 b 2454 856 2504 924 2474 892 b 2400 656 2419 797 2406 726 b 2438 92 2382 467 2400 275 b 2460 8 2442 74 2450 22 z m 2874 697 b 2686 626 2876 594 2753 547 b 2671 731 2664 654 2657 697 b 2874 697 2714 839 2872 810 z m 2804 147 b 2696 231 2750 125 2697 172 b 2794 339 2696 286 2735 347 b 2849 300 2815 338 2838 319 b 2850 199 2867 271 2867 231 b 2804 147 2842 176 2824 157 z m 3644 -14 b 3907 29 3733 -19 3825 -6 b 3975 78 3935 40 3958 56 b 4004 171 3996 104 4004 139 b 3863 313 4004 257 3944 329 b 3707 257 3840 308 3729 261 b 3617 261 3678 249 3643 246 b 3538 382 3572 282 3550 335 b 3669 382 3582 379 3625 379 b 3749 394 3697 382 3725 385 b 3789 424 3765 399 3781 408 b 3783 544 3811 460 3810 511 b 3719 572 3771 565 3742 569 b 3533 572 3694 574 3558 572 b 3578 681 3542 613 3557 650 b 3632 729 3593 701 3610 718 b 3706 739 3653 739 3681 742 b 3806 697 3742 731 3772 710 b 3914 696 3840 688 3879 682 b 3964 739 3936 703 3951 719 b 3997 844 3983 768 3994 806 b 3990 913 3999 865 3999 890 b 3949 971 3983 935 3969 957 b 3836 1011 3918 994 3875 1007 b 3646 1018 3772 1021 3710 1019 b 3443 961 3578 1017 3501 1003 b 3288 750 3369 913 3317 835 b 3244 535 3265 681 3251 608 b 3250 299 3236 456 3236 376 b 3363 71 3265 215 3297 126 b 3468 18 3393 47 3429 29 b 3644 -14 3525 -3 3585 -8 z m 4200 0 b 4329 -12 4239 -17 4286 -21 b 4414 40 4361 -6 4393 13 b 4432 113 4429 60 4432 88 b 4421 206 4432 146 4429 174 b 4506 210 4449 208 4478 213 b 4578 201 4531 210 4554 207 b 4556 110 4568 171 4557 140 b 4569 53 4554 92 4560 69 b 4606 19 4578 38 4593 29 b 4768 -10 4653 -10 4715 -25 b 4840 42 4797 -6 4829 15 b 4889 268 4857 75 4886 232 b 4885 658 4900 397 4910 531 b 4793 882 4869 739 4839 818 b 4657 975 4760 928 4707 957 b 4299 978 4544 1018 4413 1013 b 4147 860 4236 960 4182 913 b 4067 550 4090 769 4071 656 b 4083 172 4063 424 4065 297 b 4110 71 4086 139 4093 101 b 4200 0 4129 40 4163 17 z m 4613 372 b 4510 385 4579 381 4544 386 b 4383 372 4467 382 4426 381 b 4413 583 4374 442 4375 524 b 4546 622 4440 628 4499 650 b 4604 526 4578 603 4594 564 b 4613 372 4617 476 4618 424 z m 5099 -1 b 5253 -17 5147 -25 5203 -29 b 5321 25 5278 -8 5304 6 b 5347 113 5342 49 5350 83 b 5353 218 5346 133 5343 199 b 5408 233 5363 239 5389 240 b 5489 160 5443 221 5472 193 b 5514 44 5503 125 5500 83 b 5553 3 5519 29 5535 11 b 5679 -10 5590 -18 5640 -26 b 5732 33 5700 -3 5719 15 b 5751 113 5744 57 5750 85 b 5736 226 5756 150 5750 190 b 5664 325 5724 264 5694 299 b 5742 439 5700 354 5725 396 b 5768 676 5771 513 5778 599 b 5681 879 5756 750 5731 826 b 5443 997 5621 944 5531 986 b 5199 981 5363 1008 5275 1007 b 5081 917 5156 967 5114 949 b 5004 768 5042 876 5021 822 b 4967 458 4974 669 4965 563 b 4986 206 4972 374 4972 286 b 5050 42 4999 147 5017 92 b 5099 -1 5063 24 5079 10 z m 5426 497 b 5319 572 5379 475 5335 521 b 5319 689 5308 608 5308 650 b 5376 765 5328 718 5347 750 b 5425 772 5389 775 5408 776 b 5479 717 5449 765 5468 739 b 5479 550 5500 665 5503 601 b 5426 497 5468 528 5451 506 z m 5846 568 b 5872 579 5856 567 5864 574 b 6153 674 5961 626 6068 624 b 6206 832 6210 704 6233 776 b 6168 872 6200 849 6183 865 b 6092 879 6147 883 6117 883 b 5917 754 6024 861 5963 810 b 5847 618 5883 715 5863 665 b 5838 586 5842 608 5839 599 b 5846 568 5838 578 5838 569 z m 6017 164 b 6125 138 6050 147 6088 133 b 6210 244 6182 140 6225 190 b 6129 313 6200 275 6163 301 b 5910 325 6061 338 5983 338 b 5850 301 5894 322 5857 317 b 5863 282 5847 294 5857 286 b 6017 164 5883 261 5990 179 z m 6236 361 b 6381 482 6313 357 6381 408 b 6346 554 6381 511 6367 538 b 5983 531 6271 615 6074 565 b 5904 493 5954 521 5928 508 b 5875 467 5897 489 5876 476 b 5899 442 5872 456 5889 449 b 6110 379 5928 428 6078 386 b 6236 361 6151 371 6194 364 z "},"\u0000":{"ha":0,"x_min":0,"x_max":0,"o":""},"\r":{"ha":0,"x_min":0,"x_max":0,"o":""}}}
